<svg width="1380" height="446" viewBox="0 0 1380 446" fill="none" xmlns="http://www.w3.org/2000/svg">
<rect x="0.832031" y="0.613281" width="1378.52" height="444.898" rx="128" fill="#D9D9D9"/>
<path d="M259.152 111.2C252.26 115.751 239.701 116.455 234.282 116.239C234.282 92.5538 237.696 87.7805 245.271 74.8875C252.135 63.2042 267.308 52.0653 276.495 48.5197C283.844 45.6832 293.739 44.007 297.769 43.5234C298.037 46.3169 298.413 53.4189 297.769 59.4787C296.963 67.0535 292.289 78.0128 285.359 88.0051C278.429 97.9973 267.767 105.51 259.152 111.2Z" fill="#777777"/>
<path d="M209.279 122.635C216.561 124.988 227.024 130.497 235.569 130.497C244.115 130.497 253.853 124.362 268.634 119.984C284.398 115.315 297.308 114.005 317.519 119.984C337.029 125.756 350.419 139.752 354.508 146.653C327.439 161.393 312.776 197.58 323.687 226.518C333.55 252.676 353.979 264.876 362.961 267.707C355.241 294.486 333.98 322.591 322.072 335.848C310.164 349.104 294.212 354.721 268.149 343.936C242.086 333.152 224.511 340.242 216.822 342.117C209.133 343.993 195.305 354.52 175.261 348.581C155.216 342.642 129.045 301.801 117.138 271.397C104.078 238.048 92.2152 180.639 128.516 142.27C164.817 103.902 200.177 119.695 209.279 122.635Z" fill="#777777"/>
<path d="M462.731 178.262H521.331V191.662H462.731V178.262ZM455.331 138.862H469.731V288.062L455.331 291.062V138.862ZM441.331 286.462C447.598 284.862 454.798 282.996 462.931 280.862C471.198 278.596 479.931 276.196 489.131 273.662C498.465 270.996 507.798 268.329 517.131 265.662L518.931 279.862C510.531 282.529 501.998 285.196 493.331 287.862C484.665 290.396 476.331 292.862 468.331 295.262C460.331 297.663 452.998 299.863 446.331 301.863L441.331 286.462ZM491.931 245.862L504.131 239.862C508.665 245.596 513.131 251.796 517.531 258.462C521.931 264.996 525.865 271.462 529.331 277.862C532.931 284.262 535.598 289.996 537.331 295.062L524.131 301.863C522.398 296.796 519.798 291.062 516.331 284.662C512.998 278.129 509.198 271.462 504.931 264.662C500.798 257.862 496.465 251.596 491.931 245.862ZM462.131 138.862H529.931V230.462H462.131V216.462H515.731V152.862H462.131V138.862ZM602.331 139.062H617.731V261.062C617.731 265.329 617.198 268.796 616.131 271.462C615.198 274.129 613.198 276.196 610.131 277.662C607.198 278.996 603.265 279.862 598.331 280.262C593.531 280.662 587.665 280.862 580.731 280.862C580.598 279.262 580.198 277.462 579.531 275.462C578.998 273.462 578.331 271.462 577.531 269.462C576.865 267.462 576.131 265.729 575.331 264.262C580.665 264.529 585.465 264.662 589.731 264.662C594.131 264.662 597.131 264.596 598.731 264.462C600.198 264.462 601.131 264.196 601.531 263.662C602.065 263.129 602.331 262.129 602.331 260.662V139.062ZM544.931 139.062H610.931V154.062H560.131V312.063H544.931V139.062ZM701.731 223.462H825.531V237.263H701.731V223.462ZM783.331 207.462H798.131V293.662C798.131 298.196 797.531 301.596 796.331 303.863C795.131 306.263 792.931 308.129 789.731 309.463C786.531 310.529 782.265 311.196 776.931 311.463C771.598 311.729 764.931 311.863 756.931 311.863C756.665 309.729 756.065 307.263 755.131 304.463C754.198 301.663 753.198 299.196 752.131 297.063C756.265 297.196 760.131 297.329 763.731 297.463C767.465 297.596 770.665 297.596 773.331 297.463C776.131 297.463 778.065 297.463 779.131 297.463C780.731 297.329 781.798 296.996 782.331 296.463C782.998 295.929 783.331 294.996 783.331 293.662V207.462ZM803.331 127.862L813.931 139.662C804.331 142.462 793.331 145.062 780.931 147.462C768.665 149.862 755.931 152.062 742.731 154.062C729.531 155.929 716.665 157.529 704.131 158.862C703.998 156.996 703.465 154.929 702.531 152.662C701.731 150.262 700.931 148.329 700.131 146.862C709.198 145.796 718.531 144.596 728.131 143.262C737.731 141.796 747.131 140.262 756.331 138.662C765.531 137.062 774.131 135.329 782.131 133.462C790.265 131.596 797.331 129.729 803.331 127.862ZM707.331 169.062L719.731 165.062C721.998 168.796 724.065 172.862 725.931 177.262C727.931 181.662 729.665 185.996 731.131 190.262C732.731 194.396 733.865 198.062 734.531 201.262L721.131 206.262C720.198 201.329 718.398 195.396 715.731 188.462C713.198 181.396 710.398 174.929 707.331 169.062ZM746.531 161.262L759.931 158.262C762.198 164.129 764.265 170.462 766.131 177.262C767.998 183.929 769.198 189.596 769.731 194.262L755.531 197.862C755.265 193.196 754.265 187.462 752.531 180.662C750.798 173.729 748.798 167.262 746.531 161.262ZM717.931 252.062L730.131 245.462C733.731 248.929 737.265 252.729 740.731 256.862C744.198 260.996 747.398 265.129 750.331 269.262C753.265 273.396 755.531 277.129 757.131 280.462L744.131 288.062C742.665 284.729 740.465 280.929 737.531 276.662C734.731 272.396 731.598 268.129 728.131 263.862C724.798 259.462 721.398 255.529 717.931 252.062ZM678.931 128.062H693.531V311.863H678.931V128.062ZM638.731 259.062C644.198 256.129 650.865 252.329 658.731 247.662C666.731 242.996 674.798 238.196 682.931 233.262L687.731 245.662C680.665 250.729 673.531 255.729 666.331 260.662C659.265 265.596 652.531 270.129 646.131 274.262L638.731 259.062ZM640.931 159.462L653.131 153.662C656.331 157.796 659.398 162.329 662.331 167.262C665.398 172.062 668.131 176.862 670.531 181.662C673.065 186.329 674.931 190.529 676.131 194.262L663.131 201.262C661.931 197.396 660.131 193.062 657.731 188.262C655.465 183.329 652.865 178.396 649.931 173.462C646.998 168.396 643.998 163.729 640.931 159.462ZM808.131 155.662L821.731 162.662C818.265 168.262 814.398 173.996 810.131 179.862C805.865 185.729 801.531 191.396 797.131 196.862C792.865 202.329 788.798 207.196 784.931 211.462L773.531 204.862C777.265 200.596 781.265 195.662 785.531 190.062C789.798 184.329 793.931 178.462 797.931 172.462C802.065 166.462 805.465 160.862 808.131 155.662ZM927.531 192.862H1009.73V207.862H927.531V192.862ZM843.731 287.462H1023.53V302.463H843.731V287.462ZM918.931 131.062H934.731V295.462H918.931V131.062ZM1045.73 236.662H1219.13V250.062H1045.73V236.662ZM1125.33 217.262H1140.93V312.263H1125.33V217.262ZM1119.33 244.062L1131.13 249.262C1125.13 257.662 1117.8 265.662 1109.13 273.262C1100.46 280.862 1091.13 287.729 1081.13 293.862C1071.13 299.863 1061.2 304.729 1051.33 308.463C1050.66 307.263 1049.73 305.863 1048.53 304.263C1047.33 302.796 1046.13 301.329 1044.93 299.863C1043.73 298.396 1042.53 297.196 1041.33 296.263C1051.06 293.062 1060.86 288.796 1070.73 283.462C1080.73 277.996 1089.93 271.862 1098.33 265.062C1106.86 258.262 1113.86 251.262 1119.33 244.062ZM1146.13 243.662C1151.6 251.129 1158.53 258.196 1166.93 264.862C1175.33 271.396 1184.53 277.196 1194.53 282.262C1204.53 287.329 1214.66 291.329 1224.93 294.262C1223.86 295.196 1222.66 296.396 1221.33 297.863C1220.13 299.463 1218.93 300.996 1217.73 302.463C1216.66 304.063 1215.66 305.529 1214.73 306.863C1204.6 303.396 1194.4 298.796 1184.13 293.062C1174 287.196 1164.6 280.529 1155.93 273.062C1147.26 265.596 1139.93 257.596 1133.93 249.062L1146.13 243.662ZM1044.53 149.062H1122.73V162.462H1044.53V149.062ZM1116.53 149.062H1131.13C1131.13 149.062 1131.06 149.862 1130.93 151.462C1130.93 152.929 1130.86 154.196 1130.73 155.262C1130.06 167.262 1129.26 177.062 1128.33 184.662C1127.53 192.129 1126.6 197.929 1125.53 202.062C1124.46 206.196 1123.13 209.196 1121.53 211.062C1119.93 212.662 1118.2 213.862 1116.33 214.662C1114.6 215.329 1112.46 215.796 1109.93 216.062C1107.93 216.329 1105.06 216.462 1101.33 216.462C1097.73 216.462 1093.93 216.329 1089.93 216.062C1089.66 214.062 1089.2 211.796 1088.53 209.262C1087.86 206.729 1087 204.529 1085.93 202.662C1089.66 203.062 1093.13 203.329 1096.33 203.462C1099.66 203.462 1102.06 203.462 1103.53 203.462C1106.06 203.596 1108 202.996 1109.33 201.662C1110.4 200.462 1111.33 198.129 1112.13 194.662C1113.06 191.062 1113.86 185.796 1114.53 178.862C1115.33 171.929 1116 162.796 1116.53 151.462V149.062ZM1076.33 128.262H1091.13C1090.6 139.462 1089.66 149.862 1088.33 159.462C1087 168.929 1084.93 177.662 1082.13 185.662C1079.33 193.529 1075.33 200.596 1070.13 206.862C1064.93 212.996 1058.26 218.329 1050.13 222.862C1049.06 221.129 1047.6 219.129 1045.73 216.862C1044 214.596 1042.33 212.862 1040.73 211.662C1048.06 207.796 1054 203.196 1058.53 197.862C1063.06 192.396 1066.53 186.196 1068.93 179.262C1071.46 172.196 1073.26 164.462 1074.33 156.062C1075.4 147.529 1076.06 138.262 1076.33 128.262ZM1159.73 157.462V199.062H1200.93V157.462H1159.73ZM1145.53 144.262H1215.93V212.462H1145.53V144.262Z" fill="white"/>
</svg>
