<svg width="865" height="910" viewBox="0 0 865 910" fill="none" xmlns="http://www.w3.org/2000/svg">
<rect x="0.529297" y="46.1465" width="863.82" height="863.82" rx="154" fill="#A8E70D"/>
<rect x="53.4961" y="99.1133" width="757.882" height="757.882" rx="378.941" fill="white"/>
<path d="M357.976 76.075C297.585 115.675 318.006 200.506 335.766 237.972L341.723 246.611L395.909 230.919C393.001 224.852 370.616 215.158 357.4 169.521C340.784 112.147 376.769 105.18 380.375 93.7718C383.98 82.3633 387.01 57.0356 357.976 76.075Z" fill="#7F853F"/>
<path d="M326.188 109.47C337.509 88.9173 365.692 66.9373 372.99 68.2786C380.288 69.6199 377.101 70.543 371.649 75.5767C369.211 77.8278 371.648 75.5755 360.745 85.6428C318.203 120.073 329.943 182.084 341.131 208.786C349.695 231.196 354.289 239.449 356.367 241.593L357.659 242.001C357.471 242.343 357.058 242.306 356.367 241.593L334.842 234.79C304.034 185.67 316.236 130.777 326.188 109.47Z" fill="#B1B351"/>
<path d="M149.027 261.209C161.916 296.17 231.157 326.097 255.483 330.568L352.361 271.419L454.865 255.553C460.595 243.529 476.726 196.604 470.96 167.977C463.071 128.805 448.057 136.608 441.768 162.612C440.024 169.824 430.951 196.837 388.173 216.135C345.395 235.434 315.98 234.886 291.54 216.482C265.03 196.521 268.549 160.954 256.722 167.834C229.463 193.002 268.327 244.82 247.507 267.237C221.171 295.593 146.258 251.647 149.027 261.209Z" fill="#7F853F"/>
<path d="M201.563 311.389C156.161 286.377 149.886 264.169 148.962 260.981C148.039 257.793 181.288 291.468 201.058 297.716C223.876 304.927 259.443 308.446 280.831 298.798L248.121 328.999C242.64 325.98 222.115 322.711 201.563 311.389Z" fill="#B1B351"/>
<path d="M151.5 603.728C83.325 456.351 221.815 278.779 393.805 239.753C565.795 200.727 674.459 273.843 721.281 398.29C799.58 612.815 608.946 708.454 489.576 743.024C370.205 777.594 232.728 779.322 151.5 603.728Z" fill="url(#paint0_linear_323_89)"/>
<path d="M250.889 203.627C249.898 195.084 250.098 184.601 253.052 179.009C254.73 177.939 259.428 177.162 258.086 184.46C257.026 190.229 255.921 200.419 282.92 223.536C309.919 246.653 285.923 249.435 271.691 243.211C257.459 236.987 252.39 216.577 250.889 203.627Z" fill="#B1B351"/>
<path d="M439.947 180.166C430.889 196.608 394.207 221.051 374.943 230.084C371.909 231.537 372.678 234.195 375.866 233.272C379.053 232.349 437.675 214.868 449.596 201.555C470.48 178.233 456.72 154.579 452.61 152.315C448.499 150.051 451.493 159.206 439.947 180.166Z" fill="#B1B351"/>
<ellipse cx="662.042" cy="561.006" rx="20.7127" ry="28.4799" transform="rotate(11.1927 662.042 561.006)" fill="#E25D32"/>
<ellipse cx="626.917" cy="628.23" rx="11.462" ry="13.1388" transform="rotate(-33.5987 626.917 628.23)" fill="#E25D32"/>
<ellipse cx="252.754" cy="691.461" rx="11.462" ry="16.5425" transform="rotate(-50.4266 252.754 691.461)" fill="#E25D32"/>
<ellipse cx="303.981" cy="512.392" rx="4.41475" ry="4.11079" transform="rotate(-50.4266 303.981 512.392)" fill="#E68150"/>
<ellipse cx="296.778" cy="535.222" rx="4.41475" ry="4.11079" transform="rotate(-50.4266 296.778 535.222)" fill="#E68150"/>
<ellipse cx="278.481" cy="519.776" rx="4.41475" ry="4.11079" transform="rotate(-50.4266 278.481 519.776)" fill="#E68150"/>
<ellipse cx="546.231" cy="442.241" rx="4.41475" ry="4.11079" transform="rotate(-50.4266 546.231 442.241)" fill="#E68150"/>
<ellipse cx="539.022" cy="465.066" rx="4.41475" ry="4.11079" transform="rotate(-50.4266 539.022 465.066)" fill="#E68150"/>
<ellipse cx="520.731" cy="449.626" rx="4.41475" ry="4.11079" transform="rotate(-50.4266 520.731 449.626)" fill="#E68150"/>
<path d="M209.539 374.723C200.412 371.838 220.464 328.949 225.301 321.791C320.751 245.782 423.562 230.978 464.273 228.401C485.244 229.238 535.873 260.626 523.667 266.477C505.465 275.203 449.766 249.877 382.829 269.261C315.59 288.734 365.306 339.977 356.667 345.934C348.027 351.89 286.753 321.268 268.168 326.651C249.043 332.19 234.029 339.992 209.539 374.723Z" fill="#7F853F"/>
<defs>
<linearGradient id="paint0_linear_323_89" x1="362.457" y1="248.237" x2="461.584" y2="594.791" gradientUnits="userSpaceOnUse">
<stop stop-color="#FFA866"/>
<stop offset="1" stop-color="#FF784D"/>
</linearGradient>
</defs>
</svg>
