<svg width="2906" height="1345" viewBox="0 0 2906 1345" fill="none" xmlns="http://www.w3.org/2000/svg">
<rect x="3.44336" y="3.10156" width="2899.47" height="1338.5" rx="172.5" fill="#E9E9E9" stroke="#A8E70D" stroke-width="5"/>
<rect x="272.994" y="234.125" width="863.82" height="863.82" rx="154" fill="#A8E70D"/>
<rect x="325.961" y="287.094" width="757.882" height="757.882" rx="378.941" fill="white"/>
<path d="M630.443 264.055C570.051 303.655 590.473 388.487 608.232 425.953L614.189 434.592L668.376 418.899C665.467 412.832 643.083 403.139 629.866 357.502C613.251 300.127 649.236 293.161 652.842 281.752C656.447 270.344 659.477 245.016 630.443 264.055Z" fill="#7F853F"/>
<path d="M598.654 297.448C609.976 276.896 638.159 254.916 645.457 256.257C652.755 257.598 649.567 258.522 644.116 263.555C641.677 265.806 644.115 263.554 633.212 273.621C590.67 308.051 602.41 370.062 613.597 396.764C622.162 419.175 626.756 427.428 628.834 429.572L630.126 429.98C629.938 430.322 629.525 430.284 628.834 429.572L607.309 422.768C576.501 373.649 588.703 318.755 598.654 297.448Z" fill="#B1B351"/>
<path d="M421.494 449.189C434.383 484.15 503.623 514.077 527.95 518.548L624.828 459.399L727.332 443.533C733.062 431.509 749.193 384.585 743.427 355.958C735.537 316.785 720.523 324.588 714.235 350.592C712.491 357.805 703.418 384.818 660.64 404.116C617.862 423.414 588.447 422.866 564.007 404.463C537.497 384.502 541.016 348.935 529.189 355.815C501.93 380.983 540.794 432.8 519.974 455.218C493.638 483.573 418.725 439.627 421.494 449.189Z" fill="#7F853F"/>
<path d="M474.03 499.369C428.628 474.357 422.352 452.15 421.429 448.962C420.506 445.774 453.755 479.448 473.525 485.696C496.342 492.907 531.909 496.426 553.298 486.778L520.588 516.979C515.107 513.96 494.582 510.691 474.03 499.369Z" fill="#B1B351"/>
<path d="M423.965 791.707C355.79 644.33 494.28 466.758 666.27 427.732C838.26 388.706 946.924 461.821 993.746 586.269C1072.05 800.793 881.411 896.433 762.04 931.002C642.67 965.572 505.193 967.3 423.965 791.707Z" fill="url(#paint0_linear_341_183)"/>
<path d="M523.354 391.607C522.363 383.065 522.563 372.581 525.517 366.989C527.194 365.92 531.893 365.142 530.551 372.441C529.491 378.209 528.386 388.399 555.385 411.516C582.384 434.633 558.388 437.416 544.156 431.192C529.924 424.968 524.855 404.557 523.354 391.607Z" fill="#B1B351"/>
<path d="M712.412 368.146C703.354 384.589 666.672 409.031 647.407 418.065C644.373 419.518 645.143 422.176 648.331 421.252C651.518 420.329 710.139 402.849 722.061 389.536C742.945 366.214 729.185 342.56 725.075 340.296C720.964 338.031 723.958 347.186 712.412 368.146Z" fill="#B1B351"/>
<ellipse cx="934.507" cy="748.986" rx="20.7127" ry="28.4799" transform="rotate(11.1927 934.507 748.986)" fill="#E25D32"/>
<ellipse cx="899.384" cy="816.21" rx="11.462" ry="13.1388" transform="rotate(-33.5987 899.384 816.21)" fill="#E25D32"/>
<ellipse cx="525.219" cy="879.442" rx="11.462" ry="16.5425" transform="rotate(-50.4266 525.219 879.442)" fill="#E25D32"/>
<ellipse cx="576.446" cy="700.368" rx="4.41475" ry="4.11079" transform="rotate(-50.4266 576.446 700.368)" fill="#E68150"/>
<ellipse cx="569.245" cy="723.2" rx="4.41475" ry="4.11079" transform="rotate(-50.4266 569.245 723.2)" fill="#E68150"/>
<ellipse cx="550.946" cy="707.755" rx="4.41475" ry="4.11079" transform="rotate(-50.4266 550.946 707.755)" fill="#E68150"/>
<ellipse cx="818.7" cy="630.22" rx="4.41475" ry="4.11079" transform="rotate(-50.4266 818.7 630.22)" fill="#E68150"/>
<ellipse cx="811.491" cy="653.044" rx="4.41475" ry="4.11079" transform="rotate(-50.4266 811.491 653.044)" fill="#E68150"/>
<ellipse cx="793.2" cy="637.607" rx="4.41475" ry="4.11079" transform="rotate(-50.4266 793.2 637.607)" fill="#E68150"/>
<path d="M482.003 562.702C472.877 559.817 492.929 516.928 497.766 509.769C593.216 433.76 696.027 418.956 736.738 416.379C757.709 417.216 808.338 448.604 796.132 454.456C777.93 463.182 722.23 437.855 655.294 457.24C588.055 476.713 637.771 527.956 629.131 533.912C620.492 539.869 559.218 509.247 540.632 514.629C521.508 520.168 506.493 527.971 482.003 562.702Z" fill="#7F853F"/>
<path d="M1476.28 279.249H1649.64V295.749H1476.28V279.249ZM1464.62 372.749H1661.96V389.249H1464.62V372.749ZM1491.46 310.709L1506.42 306.309C1509.35 311.589 1512.21 317.235 1515 323.249C1517.78 329.262 1520.28 335.202 1522.48 341.069C1524.82 346.789 1526.44 351.775 1527.32 356.029L1511.7 361.529C1510.67 357.129 1509.06 352.069 1506.86 346.349C1504.8 340.482 1502.46 334.469 1499.82 328.309C1497.18 322.002 1494.39 316.135 1491.46 310.709ZM1619.28 305.209L1636.66 310.049C1634.02 316.062 1631.08 322.222 1627.86 328.529C1624.78 334.835 1621.7 340.922 1618.62 346.789C1615.54 352.655 1612.53 357.789 1609.6 362.189L1595.3 357.569C1598.08 352.875 1600.94 347.522 1603.88 341.509C1606.96 335.349 1609.82 329.115 1612.46 322.809C1615.1 316.355 1617.37 310.489 1619.28 305.209ZM1554.16 285.629H1571.32V466.689H1554.16V285.629ZM1768.88 277.709H1877.12V293.549H1768.88V277.709ZM1833.34 343.269H1850.06V445.789C1850.06 450.922 1849.32 454.809 1847.86 457.449C1846.39 460.235 1843.82 462.362 1840.16 463.829C1836.34 465.002 1831.14 465.662 1824.54 465.809C1818.08 466.102 1809.43 466.249 1798.58 466.249C1798.28 464.049 1797.62 461.409 1796.6 458.329C1795.57 455.249 1794.4 452.462 1793.08 449.969C1798.36 450.115 1803.34 450.262 1808.04 450.409C1812.73 450.555 1816.84 450.555 1820.36 450.409C1823.88 450.409 1826.3 450.409 1827.62 450.409C1829.67 450.262 1831.14 449.895 1832.02 449.309C1832.9 448.575 1833.34 447.329 1833.34 445.569V343.269ZM1759.2 338.429H1883.28V354.269H1759.2V338.429ZM1715.42 355.589L1729.94 341.069L1731.7 341.949V467.569H1715.42V355.589ZM1740.72 311.589L1756.34 317.309C1750.76 326.549 1744.31 335.789 1736.98 345.029C1729.64 354.269 1721.94 362.922 1713.88 370.989C1705.96 378.909 1698.11 386.022 1690.34 392.329C1689.46 391.155 1688.28 389.689 1686.82 387.929C1685.5 386.169 1684.1 384.409 1682.64 382.649C1681.17 380.889 1679.85 379.495 1678.68 378.469C1686.3 373.042 1693.86 366.735 1701.34 359.549C1708.96 352.362 1716.15 344.662 1722.9 336.449C1729.79 328.235 1735.73 319.949 1740.72 311.589ZM1731.92 264.289L1747.76 270.889C1742.92 277.195 1737.27 283.722 1730.82 290.469C1724.51 297.069 1717.84 303.449 1710.8 309.609C1703.9 315.622 1697.16 320.975 1690.56 325.669C1689.82 324.495 1688.87 323.102 1687.7 321.489C1686.67 319.729 1685.5 318.042 1684.18 316.429C1683 314.669 1681.9 313.349 1680.88 312.469C1687.04 308.215 1693.27 303.375 1699.58 297.949C1706.03 292.522 1712.04 286.875 1717.62 281.009C1723.34 275.142 1728.1 269.569 1731.92 264.289ZM1906.6 325.889H2100.2V339.969H1906.6V325.889ZM1994.38 283.649H2010.66V378.029H1994.38V283.649ZM2069.18 267.149L2080.18 279.469C2070.06 281.522 2058.62 283.429 2045.86 285.189C2033.24 286.949 2019.97 288.489 2006.04 289.809C1992.1 290.982 1978.02 292.009 1963.8 292.889C1949.57 293.622 1935.78 294.209 1922.44 294.649C1922.29 292.889 1921.85 290.762 1921.12 288.269C1920.38 285.775 1919.58 283.649 1918.7 281.889C1931.9 281.449 1945.46 280.789 1959.4 279.909C1973.48 278.882 1987.26 277.782 2000.76 276.609C2014.25 275.289 2026.86 273.822 2038.6 272.209C2050.33 270.595 2060.52 268.909 2069.18 267.149ZM1986.9 330.289L2000.32 336.449C1995.18 342.609 1989.1 348.622 1982.06 354.489C1975.16 360.355 1967.68 365.929 1959.62 371.209C1951.7 376.342 1943.63 381.035 1935.42 385.289C1927.2 389.395 1919.21 392.915 1911.44 395.849C1910.7 394.529 1909.68 393.062 1908.36 391.449C1907.18 389.835 1905.94 388.222 1904.62 386.609C1903.3 384.995 1902.05 383.749 1900.88 382.869C1908.5 380.375 1916.35 377.295 1924.42 373.629C1932.63 369.815 1940.62 365.635 1948.4 361.089C1956.17 356.395 1963.36 351.482 1969.96 346.349C1976.56 341.069 1982.2 335.715 1986.9 330.289ZM2018.36 330.729C2023.05 336.009 2028.77 341.142 2035.52 346.129C2042.26 350.969 2049.52 355.589 2057.3 359.989C2065.22 364.389 2073.28 368.349 2081.5 371.869C2089.86 375.242 2098.07 378.029 2106.14 380.229C2104.96 381.255 2103.64 382.649 2102.18 384.409C2100.86 386.022 2099.54 387.709 2098.22 389.469C2096.9 391.082 2095.8 392.622 2094.92 394.089C2087 391.449 2078.86 388.149 2070.5 384.189C2062.14 380.082 2053.92 375.535 2045.86 370.549C2037.94 365.415 2030.53 359.989 2023.64 354.269C2016.74 348.549 2010.73 342.682 2005.6 336.669L2018.36 330.729ZM2052.68 289.149L2070.5 294.209C2066.83 300.222 2063.02 306.382 2059.06 312.689C2055.1 318.849 2051.43 324.055 2048.06 328.309L2034.42 323.469C2036.47 320.389 2038.67 316.869 2041.02 312.909C2043.36 308.802 2045.56 304.695 2047.62 300.589C2049.67 296.482 2051.36 292.669 2052.68 289.149ZM1938.5 298.389L1952.8 293.109C1956.32 297.509 1959.76 302.495 1963.14 308.069C1966.51 313.495 1968.86 318.262 1970.18 322.369L1955.44 328.529C1953.97 324.422 1951.62 319.509 1948.4 313.789C1945.32 308.069 1942.02 302.935 1938.5 298.389ZM1934.76 381.989H2074.9V466.249H2058.4V395.189H1950.6V467.129H1934.76V381.989ZM1942.02 414.329H2067.42V425.989H1942.02V414.329ZM1942.02 446.449H2067.42V459.429H1942.02V446.449ZM1994.82 389.029H2010.66V454.809H1994.82V389.029ZM2243.42 435.229H2305.68V450.629H2243.42V435.229ZM2125.94 345.689H2209.54V361.089H2125.94V345.689ZM2235.94 337.329H2312.94V462.289H2296.66V352.729H2251.56V465.149H2235.94V337.329ZM2204.7 345.689H2220.32C2220.32 345.689 2220.32 346.202 2220.32 347.229C2220.32 348.109 2220.32 349.209 2220.32 350.529C2220.32 351.702 2220.32 352.655 2220.32 353.389C2219.73 371.575 2219.07 386.975 2218.34 399.589C2217.75 412.055 2217.02 422.322 2216.14 430.389C2215.4 438.455 2214.45 444.762 2213.28 449.309C2212.25 453.709 2210.93 456.862 2209.32 458.769C2207.41 461.262 2205.43 462.949 2203.38 463.829C2201.32 464.855 2198.83 465.515 2195.9 465.809C2193.26 466.249 2189.81 466.469 2185.56 466.469C2181.45 466.469 2177.05 466.322 2172.36 466.029C2172.21 463.682 2171.77 461.042 2171.04 458.109C2170.3 455.322 2169.28 452.902 2167.96 450.849C2172.5 451.289 2176.61 451.509 2180.28 451.509C2184.09 451.655 2186.88 451.729 2188.64 451.729C2190.25 451.729 2191.57 451.509 2192.6 451.069C2193.62 450.775 2194.65 449.969 2195.68 448.649C2197.14 446.889 2198.39 442.635 2199.42 435.889C2200.59 428.995 2201.54 418.655 2202.28 404.869C2203.16 390.935 2203.96 372.309 2204.7 348.989V345.689ZM2157.62 316.209H2173.9C2173.46 331.609 2172.72 346.642 2171.7 361.309C2170.67 375.975 2168.76 389.909 2165.98 403.109C2163.34 416.162 2159.3 428.189 2153.88 439.189C2148.45 450.189 2141.19 459.722 2132.1 467.789C2130.92 465.882 2129.16 463.755 2126.82 461.409C2124.47 459.209 2122.27 457.522 2120.22 456.349C2128.72 449.015 2135.4 440.289 2140.24 430.169C2145.22 420.049 2148.89 408.902 2151.24 396.729C2153.58 384.555 2155.2 371.649 2156.08 358.009C2156.96 344.369 2157.47 330.435 2157.62 316.209ZM2126.82 284.529H2320.2V299.929H2126.82V284.529ZM2176.32 264.509H2192.6V322.809H2176.32V264.509ZM2252.88 264.509H2269.16V322.809H2252.88V264.509ZM2431.74 310.929H2539.32V407.509H2523.48V326.989H2446.7V408.829H2431.74V310.929ZM2476.84 264.949H2493.12V467.129H2476.84V264.949ZM2440.1 379.349H2532.06V395.409H2440.1V379.349ZM2372.78 265.169L2387.74 269.349C2384.95 277.415 2381.58 285.409 2377.62 293.329C2373.66 301.102 2369.26 308.509 2364.42 315.549C2359.72 322.442 2354.81 328.529 2349.68 333.809C2349.09 332.635 2348.28 331.095 2347.26 329.189C2346.23 327.135 2345.13 325.082 2343.96 323.029C2342.93 320.975 2341.98 319.435 2341.1 318.409C2347.7 311.809 2353.78 303.815 2359.36 294.429C2365.08 285.042 2369.55 275.289 2372.78 265.169ZM2368.38 289.809H2424.48V304.989H2365.3L2368.38 289.809ZM2375.42 465.369L2373.44 450.629L2379.38 444.249L2424.04 422.029C2424.33 424.229 2424.77 426.722 2425.36 429.509C2425.94 432.295 2426.53 434.569 2427.12 436.329C2416.7 441.755 2408.27 446.155 2401.82 449.529C2395.36 453.049 2390.38 455.762 2386.86 457.669C2383.34 459.575 2380.77 461.115 2379.16 462.289C2377.54 463.462 2376.3 464.489 2375.42 465.369ZM2357.82 328.969H2419.86V343.929H2357.82V328.969ZM2346.38 373.629H2425.14V388.809H2346.38V373.629ZM2375.42 465.369C2374.83 464.195 2374.02 462.802 2373 461.189C2371.97 459.722 2370.87 458.182 2369.7 456.569C2368.52 455.102 2367.5 453.929 2366.62 453.049C2368.67 451.582 2371.09 449.235 2373.88 446.009C2376.81 442.782 2378.28 438.529 2378.28 433.249V333.369H2394.12V445.569C2394.12 445.569 2393.46 446.082 2392.14 447.109C2390.82 447.989 2389.2 449.162 2387.3 450.629C2385.54 452.095 2383.7 453.709 2381.8 455.469C2380.04 457.375 2378.5 459.135 2377.18 460.749C2376 462.509 2375.42 464.049 2375.42 465.369Z" fill="#3F3F3F"/>
<path d="M1408.78 589.18H1496.08V596.48H1408.78V589.18ZM1416.88 570.18H1488.88V577.28H1416.88V570.18ZM1433.68 607.68H1482.58V614.68H1433.68V607.68ZM1480.28 607.68H1481.78L1483.08 607.18L1488.78 610.58C1486.04 613.447 1482.94 616.58 1479.48 619.98C1476.08 623.38 1472.54 626.88 1468.88 630.48C1465.28 634.014 1461.78 637.38 1458.38 640.58L1451.78 636.58C1455.11 633.514 1458.58 630.247 1462.18 626.78C1465.78 623.247 1469.18 619.88 1472.38 616.68C1475.58 613.48 1478.21 610.78 1480.28 608.58V607.68ZM1428.88 632.38L1433.18 626.88C1436.84 627.947 1440.78 629.18 1444.98 630.58C1449.18 631.98 1453.34 633.48 1457.48 635.08C1461.61 636.68 1465.48 638.314 1469.08 639.98C1472.74 641.58 1475.88 643.147 1478.48 644.68L1473.98 651.08C1471.51 649.547 1468.51 647.947 1464.98 646.28C1461.44 644.614 1457.61 642.947 1453.48 641.28C1449.41 639.547 1445.24 637.914 1440.98 636.38C1436.78 634.847 1432.74 633.514 1428.88 632.38ZM1445.68 558.78L1453.38 559.78C1452.11 564.247 1450.71 568.98 1449.18 573.98C1447.64 578.914 1446.08 583.88 1444.48 588.88C1442.88 593.814 1441.31 598.514 1439.78 602.98C1438.31 607.38 1436.94 611.28 1435.68 614.68H1427.78C1429.18 611.08 1430.64 607.014 1432.18 602.48C1433.78 597.88 1435.38 593.047 1436.98 587.98C1438.64 582.914 1440.21 577.88 1441.68 572.88C1443.21 567.88 1444.54 563.18 1445.68 558.78ZM1511.38 583.08H1588.48V590.58H1511.38V583.08ZM1585.48 583.08H1593.28C1593.28 583.08 1593.24 583.347 1593.18 583.88C1593.18 584.347 1593.18 584.88 1593.18 585.48C1593.18 586.08 1593.18 586.58 1593.18 586.98C1592.78 596.98 1592.38 605.48 1591.98 612.48C1591.58 619.48 1591.11 625.247 1590.58 629.78C1590.11 634.247 1589.51 637.747 1588.78 640.28C1588.11 642.814 1587.28 644.647 1586.28 645.78C1585.14 647.18 1583.94 648.147 1582.68 648.68C1581.41 649.28 1579.84 649.68 1577.98 649.88C1576.24 650.014 1573.91 650.047 1570.98 649.98C1568.11 649.98 1565.11 649.88 1561.98 649.68C1561.91 648.547 1561.64 647.247 1561.18 645.78C1560.71 644.314 1560.11 643.014 1559.38 641.88C1562.78 642.214 1565.91 642.414 1568.78 642.48C1571.64 642.48 1573.68 642.48 1574.88 642.48C1575.94 642.547 1576.81 642.48 1577.48 642.28C1578.14 642.08 1578.74 641.68 1579.28 641.08C1580.08 640.214 1580.78 638.614 1581.38 636.28C1581.98 633.88 1582.51 630.48 1582.98 626.08C1583.51 621.614 1583.98 615.98 1584.38 609.18C1584.78 602.38 1585.14 594.18 1585.48 584.58V583.08ZM1544.28 559.18H1551.88V571.08C1551.88 575.547 1551.68 580.38 1551.28 585.58C1550.94 590.78 1550.11 596.18 1548.78 601.78C1547.51 607.314 1545.51 612.88 1542.78 618.48C1540.04 624.014 1536.41 629.447 1531.88 634.78C1527.34 640.047 1521.58 644.98 1514.58 649.58C1514.18 648.98 1513.61 648.347 1512.88 647.68C1512.21 647.014 1511.48 646.347 1510.68 645.68C1509.94 645.014 1509.28 644.48 1508.68 644.08C1515.34 639.747 1520.84 635.114 1525.18 630.18C1529.58 625.247 1533.08 620.18 1535.68 614.98C1538.28 609.78 1540.18 604.614 1541.38 599.48C1542.58 594.28 1543.34 589.28 1543.68 584.48C1544.08 579.68 1544.28 575.18 1544.28 570.98V559.18ZM1519.38 564.58L1525.78 561.78C1527.84 563.98 1529.91 566.48 1531.98 569.28C1534.04 572.08 1535.61 574.48 1536.68 576.48L1529.88 579.78C1529.21 578.38 1528.31 576.814 1527.18 575.08C1526.04 573.347 1524.78 571.547 1523.38 569.68C1522.04 567.814 1520.71 566.114 1519.38 564.58ZM1553.08 605.88L1559.28 602.88C1561.01 604.814 1562.78 606.947 1564.58 609.28C1566.38 611.614 1568.04 613.914 1569.58 616.18C1571.18 618.38 1572.41 620.347 1573.28 622.08L1566.68 625.68C1565.81 623.88 1564.64 621.847 1563.18 619.58C1561.71 617.247 1560.08 614.914 1558.28 612.58C1556.54 610.18 1554.81 607.947 1553.08 605.88ZM1609.68 588.58H1695.78V595.18H1609.68V588.58ZM1617.38 570.78H1674.18V577.18H1617.38V570.78ZM1642.78 558.98H1650.18V591.78H1642.78V558.98ZM1680.38 601.48L1685.18 606.68C1680.98 607.814 1676.14 608.814 1670.68 609.68C1665.28 610.547 1659.64 611.314 1653.78 611.98C1647.98 612.647 1642.34 613.18 1636.88 613.58C1636.74 612.78 1636.48 611.88 1636.08 610.88C1635.74 609.814 1635.41 608.947 1635.08 608.28C1639.01 607.947 1643.08 607.547 1647.28 607.08C1651.48 606.614 1655.61 606.114 1659.68 605.58C1663.74 604.98 1667.54 604.347 1671.08 603.68C1674.68 602.947 1677.78 602.214 1680.38 601.48ZM1685.58 563.58L1691.68 567.08C1684.94 575.214 1677.21 582.714 1668.48 589.58C1659.81 596.38 1650.51 602.514 1640.58 607.98C1630.71 613.38 1620.64 618.047 1610.38 621.98C1610.04 621.447 1609.58 620.814 1608.98 620.08C1608.38 619.28 1607.78 618.514 1607.18 617.78C1606.58 617.047 1606.01 616.447 1605.48 615.98C1615.94 612.38 1626.08 607.98 1635.88 602.78C1645.74 597.514 1654.91 591.58 1663.38 584.98C1671.91 578.38 1679.31 571.247 1685.58 563.58ZM1633.88 601.78L1641.38 602.58C1640.64 605.847 1639.84 609.28 1638.98 612.88C1638.11 616.48 1637.24 619.98 1636.38 623.38C1635.51 626.714 1634.68 629.647 1633.88 632.18L1626.38 631.08C1627.24 628.547 1628.11 625.614 1628.98 622.28C1629.91 618.88 1630.81 615.38 1631.68 611.78C1632.54 608.18 1633.28 604.847 1633.88 601.78ZM1677.48 620.88H1685.08C1685.08 620.88 1685.04 621.114 1684.98 621.58C1684.98 621.98 1684.94 622.447 1684.88 622.98C1684.88 623.514 1684.81 623.947 1684.68 624.28C1683.94 629.214 1683.18 633.314 1682.38 636.58C1681.58 639.78 1680.71 642.347 1679.78 644.28C1678.91 646.214 1677.94 647.68 1676.88 648.68C1675.81 649.614 1674.68 650.247 1673.48 650.58C1672.34 650.914 1670.88 651.08 1669.08 651.08C1667.61 651.214 1665.48 651.247 1662.68 651.18C1659.94 651.114 1657.01 651.014 1653.88 650.88C1653.81 649.814 1653.54 648.614 1653.08 647.28C1652.68 646.014 1652.18 644.88 1651.58 643.88C1654.71 644.214 1657.71 644.414 1660.58 644.48C1663.51 644.614 1665.58 644.68 1666.78 644.68C1667.78 644.68 1668.61 644.614 1669.28 644.48C1669.94 644.347 1670.54 644.08 1671.08 643.68C1672.34 642.68 1673.48 640.514 1674.48 637.18C1675.54 633.847 1676.54 628.747 1677.48 621.88V620.88ZM1632.78 620.88H1679.58V627.28H1631.18L1632.78 620.88ZM1748.88 564.48H1797.18V571.58H1748.88V564.48ZM1746.08 600.38H1799.18V607.58H1746.08V600.38ZM1780.68 567.28H1787.88V650.98H1780.68V567.28ZM1757.28 567.58H1764.38V602.68C1764.38 606.814 1764.21 611.08 1763.88 615.48C1763.54 619.814 1762.88 624.114 1761.88 628.38C1760.94 632.58 1759.51 636.647 1757.58 640.58C1755.71 644.514 1753.21 648.114 1750.08 651.38C1749.68 650.98 1749.11 650.48 1748.38 649.88C1747.71 649.347 1747.01 648.814 1746.28 648.28C1745.61 647.814 1744.94 647.414 1744.28 647.08C1747.21 644.08 1749.51 640.78 1751.18 637.18C1752.91 633.514 1754.21 629.714 1755.08 625.78C1756.01 621.847 1756.61 617.914 1756.88 613.98C1757.14 610.047 1757.28 606.247 1757.28 602.58V567.58ZM1708.28 564.48H1743.48V571.38H1708.28V564.48ZM1718.28 595.08H1741.78V638.38H1718.28V631.68H1735.08V601.88H1718.28V595.08ZM1721.38 567.68L1728.28 569.18C1727.14 575.447 1725.71 581.58 1723.98 587.58C1722.24 593.58 1720.21 599.214 1717.88 604.48C1715.61 609.68 1712.91 614.28 1709.78 618.28C1709.64 617.614 1709.38 616.78 1708.98 615.78C1708.58 614.78 1708.14 613.747 1707.68 612.68C1707.21 611.614 1706.78 610.78 1706.38 610.18C1710.24 605.047 1713.38 598.78 1715.78 591.38C1718.18 583.914 1720.04 576.014 1721.38 567.68ZM1715.08 595.08H1721.48V646.38H1715.08V595.08ZM1847.98 562.08H1856.38C1856.24 564.68 1856.01 568.114 1855.68 572.38C1855.34 576.647 1854.71 581.48 1853.78 586.88C1852.91 592.214 1851.54 597.78 1849.68 603.58C1847.81 609.38 1845.31 615.114 1842.18 620.78C1839.04 626.447 1835.04 631.814 1830.18 636.88C1825.38 641.947 1819.51 646.347 1812.58 650.08C1811.98 649.147 1811.11 648.147 1809.98 647.08C1808.84 646.014 1807.68 645.08 1806.48 644.28C1813.34 640.747 1819.11 636.614 1823.78 631.88C1828.44 627.147 1832.28 622.08 1835.28 616.68C1838.28 611.28 1840.61 605.847 1842.28 600.38C1843.94 594.847 1845.18 589.58 1845.98 584.58C1846.78 579.58 1847.28 575.147 1847.48 571.28C1847.74 567.347 1847.91 564.28 1847.98 562.08ZM1855.98 564.08C1856.04 565.214 1856.18 567.18 1856.38 569.98C1856.64 572.714 1857.11 576.047 1857.78 579.98C1858.44 583.914 1859.41 588.18 1860.68 592.78C1861.94 597.38 1863.64 602.114 1865.78 606.98C1867.91 611.847 1870.54 616.58 1873.68 621.18C1876.81 625.78 1880.58 630.047 1884.98 633.98C1889.38 637.847 1894.54 641.114 1900.48 643.78C1899.34 644.647 1898.24 645.647 1897.18 646.78C1896.18 647.98 1895.34 649.08 1894.68 650.08C1888.68 647.214 1883.38 643.714 1878.78 639.58C1874.24 635.38 1870.34 630.847 1867.08 625.98C1863.88 621.047 1861.18 616.014 1858.98 610.88C1856.84 605.747 1855.11 600.747 1853.78 595.88C1852.44 590.947 1851.44 586.38 1850.78 582.18C1850.11 577.914 1849.64 574.28 1849.38 571.28C1849.11 568.214 1848.94 566.014 1848.88 564.68L1855.98 564.08ZM1914.08 637.98H1992.78V645.48H1914.08V637.98ZM1908.48 590.78H1998.18V598.18H1908.48V590.78ZM1948.98 559.28H1956.98V643.58H1948.98V559.28ZM2007.08 611.88C2010.28 611.08 2013.91 610.147 2017.98 609.08C2022.04 607.947 2026.34 606.747 2030.88 605.48C2035.41 604.147 2039.94 602.847 2044.48 601.58L2045.48 608.68C2039.14 610.547 2032.78 612.447 2026.38 614.38C2020.04 616.314 2014.38 617.98 2009.38 619.38L2007.08 611.88ZM2007.98 579.18H2044.38V586.38H2007.98V579.18ZM2023.08 558.98H2030.48V641.08C2030.48 643.147 2030.21 644.747 2029.68 645.88C2029.14 647.014 2028.21 647.914 2026.88 648.58C2025.54 649.18 2023.78 649.547 2021.58 649.68C2019.38 649.88 2016.54 649.98 2013.08 649.98C2012.94 648.98 2012.64 647.78 2012.18 646.38C2011.71 645.047 2011.21 643.88 2010.68 642.88C2013.01 642.947 2015.14 642.98 2017.08 642.98C2019.08 642.98 2020.41 642.947 2021.08 642.88C2022.41 642.88 2023.08 642.247 2023.08 640.98V558.98ZM2044.98 567.38H2099.28V574.88H2044.98V567.38ZM2073.48 570.08H2081.48V639.98C2081.48 642.514 2081.11 644.48 2080.38 645.88C2079.64 647.28 2078.38 648.314 2076.58 648.98C2074.71 649.647 2072.18 650.047 2068.98 650.18C2065.78 650.314 2061.81 650.38 2057.08 650.38C2056.94 649.647 2056.71 648.78 2056.38 647.78C2056.04 646.847 2055.68 645.88 2055.28 644.88C2054.88 643.88 2054.44 643.014 2053.98 642.28C2056.51 642.347 2058.91 642.414 2061.18 642.48C2063.44 642.547 2065.41 642.58 2067.08 642.58C2068.81 642.514 2070.04 642.447 2070.78 642.38C2071.78 642.38 2072.48 642.214 2072.88 641.88C2073.28 641.48 2073.48 640.814 2073.48 639.88V570.08ZM2145.88 571.58H2193.68V578.08H2145.88V571.58ZM2133.68 590.98H2198.08V597.38H2133.68V590.98ZM2147.58 560.28L2154.58 561.88C2152.84 567.014 2150.61 571.947 2147.88 576.68C2145.14 581.414 2142.28 585.414 2139.28 588.68C2138.81 588.28 2138.18 587.847 2137.38 587.38C2136.64 586.914 2135.88 586.48 2135.08 586.08C2134.28 585.614 2133.54 585.247 2132.88 584.98C2136.08 581.914 2138.94 578.214 2141.48 573.88C2144.01 569.48 2146.04 564.947 2147.58 560.28ZM2162.28 558.98H2169.68V595.18H2162.28V558.98ZM2129.38 598.48V633.88H2122.08V605.48H2108.08V598.48H2129.38ZM2129.38 630.58C2131.78 634.247 2135.11 636.98 2139.38 638.78C2143.64 640.58 2148.68 641.58 2154.48 641.78C2157.21 641.914 2160.51 642.014 2164.38 642.08C2168.31 642.08 2172.41 642.047 2176.68 641.98C2181.01 641.914 2185.18 641.814 2189.18 641.68C2193.18 641.547 2196.68 641.38 2199.68 641.18C2199.34 641.714 2199.01 642.447 2198.68 643.38C2198.34 644.314 2198.04 645.247 2197.78 646.18C2197.51 647.18 2197.31 648.047 2197.18 648.78C2194.44 648.914 2191.21 649.014 2187.48 649.08C2183.74 649.147 2179.88 649.18 2175.88 649.18C2171.88 649.247 2167.98 649.247 2164.18 649.18C2160.44 649.18 2157.21 649.147 2154.48 649.08C2147.94 648.814 2142.34 647.747 2137.68 645.88C2133.08 644.014 2129.18 641.08 2125.98 637.08C2123.58 639.214 2121.11 641.347 2118.58 643.48C2116.04 645.68 2113.41 647.914 2110.68 650.18L2106.78 642.48C2109.18 640.88 2111.74 639.047 2114.48 636.98C2117.28 634.847 2119.98 632.714 2122.58 630.58H2129.38ZM2109.18 565.88L2114.68 561.38C2116.88 562.78 2119.11 564.414 2121.38 566.28C2123.64 568.08 2125.71 569.914 2127.58 571.78C2129.51 573.647 2131.08 575.38 2132.28 576.98L2126.28 581.98C2125.28 580.38 2123.81 578.614 2121.88 576.68C2120.01 574.747 2117.94 572.847 2115.68 570.98C2113.48 569.047 2111.31 567.347 2109.18 565.88ZM2150.08 611.48V627.38H2183.18V611.48H2150.08ZM2142.78 605.28H2190.88V633.68H2142.78V605.28ZM2216.28 575.08H2246.68V640.48H2216.28V633.68H2239.78V581.78H2216.28V575.08ZM2211.88 575.08H2218.78V648.38H2211.88V575.08ZM2215.78 602.88H2243.38V609.48H2215.78V602.88ZM2227.18 558.78L2235.28 560.18C2234.28 563.314 2233.18 566.48 2231.98 569.68C2230.84 572.88 2229.78 575.614 2228.78 577.88L2222.68 576.38C2223.28 574.714 2223.84 572.847 2224.38 570.78C2224.98 568.714 2225.51 566.614 2225.98 564.48C2226.51 562.347 2226.91 560.447 2227.18 558.78ZM2260.98 574.78H2291.68V581.68H2260.98V574.78ZM2288.98 574.78H2296.08C2296.08 574.78 2296.08 575.014 2296.08 575.48C2296.08 575.947 2296.08 576.514 2296.08 577.18C2296.08 577.78 2296.04 578.247 2295.98 578.58C2295.58 590.047 2295.18 599.747 2294.78 607.68C2294.44 615.614 2294.01 622.114 2293.48 627.18C2292.94 632.18 2292.31 636.08 2291.58 638.88C2290.91 641.68 2290.08 643.68 2289.08 644.88C2287.94 646.347 2286.74 647.347 2285.48 647.88C2284.28 648.48 2282.78 648.88 2280.98 649.08C2279.31 649.214 2277.11 649.247 2274.38 649.18C2271.71 649.18 2268.94 649.08 2266.08 648.88C2266.01 647.814 2265.74 646.58 2265.28 645.18C2264.88 643.78 2264.31 642.614 2263.58 641.68C2266.91 641.947 2269.91 642.114 2272.58 642.18C2275.31 642.247 2277.28 642.28 2278.48 642.28C2279.48 642.28 2280.28 642.18 2280.88 641.98C2281.54 641.714 2282.18 641.247 2282.78 640.58C2283.58 639.714 2284.28 637.947 2284.88 635.28C2285.54 632.547 2286.11 628.68 2286.58 623.68C2287.04 618.68 2287.48 612.314 2287.88 604.58C2288.28 596.78 2288.64 587.38 2288.98 576.38V574.78ZM2262.98 558.58L2270.18 560.18C2268.98 565.18 2267.51 570.08 2265.78 574.88C2264.11 579.614 2262.24 584.08 2260.18 588.28C2258.18 592.48 2256.04 596.18 2253.78 599.38C2253.31 598.98 2252.68 598.514 2251.88 597.98C2251.14 597.38 2250.38 596.847 2249.58 596.38C2248.78 595.847 2248.08 595.414 2247.48 595.08C2249.81 592.08 2251.94 588.647 2253.88 584.78C2255.81 580.847 2257.54 576.647 2259.08 572.18C2260.61 567.714 2261.91 563.18 2262.98 558.58ZM2258.38 600.68L2264.28 597.38C2266.14 599.714 2268.08 602.28 2270.08 605.08C2272.14 607.88 2274.04 610.58 2275.78 613.18C2277.58 615.78 2279.01 618.08 2280.08 620.08L2273.68 624.08C2272.68 622.014 2271.31 619.647 2269.58 616.98C2267.91 614.247 2266.08 611.48 2264.08 608.68C2262.14 605.814 2260.24 603.147 2258.38 600.68ZM2309.28 586.88H2397.28V593.28H2309.28V586.88ZM2349.18 567.68H2356.58V610.58H2349.18V567.68ZM2383.18 560.18L2388.18 565.78C2383.58 566.714 2378.38 567.58 2372.58 568.38C2366.84 569.18 2360.81 569.88 2354.48 570.48C2348.14 571.014 2341.74 571.48 2335.28 571.88C2328.81 572.214 2322.54 572.48 2316.48 572.68C2316.41 571.88 2316.21 570.914 2315.88 569.78C2315.54 568.647 2315.18 567.68 2314.78 566.88C2320.78 566.68 2326.94 566.38 2333.28 565.98C2339.68 565.514 2345.94 565.014 2352.08 564.48C2358.21 563.88 2363.94 563.214 2369.28 562.48C2374.61 561.747 2379.24 560.98 2383.18 560.18ZM2345.78 588.88L2351.88 591.68C2349.54 594.48 2346.78 597.214 2343.58 599.88C2340.44 602.547 2337.04 605.08 2333.38 607.48C2329.78 609.814 2326.11 611.947 2322.38 613.88C2318.64 615.747 2315.01 617.347 2311.48 618.68C2311.14 618.08 2310.68 617.414 2310.08 616.68C2309.54 615.947 2308.98 615.214 2308.38 614.48C2307.78 613.747 2307.21 613.18 2306.68 612.78C2310.14 611.647 2313.71 610.247 2317.38 608.58C2321.11 606.847 2324.74 604.947 2328.28 602.88C2331.81 600.747 2335.08 598.514 2338.08 596.18C2341.08 593.78 2343.64 591.347 2345.78 588.88ZM2360.08 589.08C2362.21 591.48 2364.81 593.814 2367.88 596.08C2370.94 598.28 2374.24 600.38 2377.78 602.38C2381.38 604.38 2385.04 606.18 2388.78 607.78C2392.58 609.314 2396.31 610.58 2399.98 611.58C2399.44 612.047 2398.84 612.68 2398.18 613.48C2397.58 614.214 2396.98 614.98 2396.38 615.78C2395.78 616.514 2395.28 617.214 2394.88 617.88C2391.28 616.68 2387.58 615.18 2383.78 613.38C2379.98 611.514 2376.24 609.447 2372.58 607.18C2368.98 604.847 2365.61 602.38 2362.48 599.78C2359.34 597.18 2356.61 594.514 2354.28 591.78L2360.08 589.08ZM2375.68 570.18L2383.78 572.48C2382.11 575.214 2380.38 578.014 2378.58 580.88C2376.78 583.68 2375.11 586.047 2373.58 587.98L2367.38 585.78C2368.31 584.38 2369.31 582.78 2370.38 580.98C2371.44 579.114 2372.44 577.247 2373.38 575.38C2374.31 573.514 2375.08 571.78 2375.68 570.18ZM2323.78 574.38L2330.28 571.98C2331.88 573.98 2333.44 576.247 2334.98 578.78C2336.51 581.247 2337.58 583.414 2338.18 585.28L2331.48 588.08C2330.81 586.214 2329.74 583.98 2328.28 581.38C2326.88 578.78 2325.38 576.447 2323.78 574.38ZM2322.08 612.38H2385.78V650.68H2378.28V618.38H2329.28V651.08H2322.08V612.38ZM2325.38 627.08H2382.38V632.38H2325.38V627.08ZM2325.38 641.68H2382.38V647.58H2325.38V641.68ZM2349.38 615.58H2356.58V645.48H2349.38V615.58ZM2462.38 636.58H2490.68V643.58H2462.38V636.58ZM2408.98 595.88H2446.98V602.88H2408.98V595.88ZM2458.98 592.08H2493.98V648.88H2486.58V599.08H2466.08V650.18H2458.98V592.08ZM2444.78 595.88H2451.88C2451.88 595.88 2451.88 596.114 2451.88 596.58C2451.88 596.98 2451.88 597.48 2451.88 598.08C2451.88 598.614 2451.88 599.047 2451.88 599.38C2451.61 607.647 2451.31 614.647 2450.98 620.38C2450.71 626.047 2450.38 630.714 2449.98 634.38C2449.64 638.047 2449.21 640.914 2448.68 642.98C2448.21 644.98 2447.61 646.414 2446.88 647.28C2446.01 648.414 2445.11 649.18 2444.18 649.58C2443.24 650.047 2442.11 650.347 2440.78 650.48C2439.58 650.68 2438.01 650.78 2436.08 650.78C2434.21 650.78 2432.21 650.714 2430.08 650.58C2430.01 649.514 2429.81 648.314 2429.48 646.98C2429.14 645.714 2428.68 644.614 2428.08 643.68C2430.14 643.88 2432.01 643.98 2433.68 643.98C2435.41 644.047 2436.68 644.08 2437.48 644.08C2438.21 644.08 2438.81 643.98 2439.28 643.78C2439.74 643.647 2440.21 643.28 2440.68 642.68C2441.34 641.88 2441.91 639.947 2442.38 636.88C2442.91 633.747 2443.34 629.047 2443.68 622.78C2444.08 616.447 2444.44 607.98 2444.78 597.38V595.88ZM2423.38 582.48H2430.78C2430.58 589.48 2430.24 596.314 2429.78 602.98C2429.31 609.647 2428.44 615.98 2427.18 621.98C2425.98 627.914 2424.14 633.38 2421.68 638.38C2419.21 643.38 2415.91 647.714 2411.78 651.38C2411.24 650.514 2410.44 649.547 2409.38 648.48C2408.31 647.48 2407.31 646.714 2406.38 646.18C2410.24 642.847 2413.28 638.88 2415.48 634.28C2417.74 629.68 2419.41 624.614 2420.48 619.08C2421.54 613.547 2422.28 607.68 2422.68 601.48C2423.08 595.28 2423.31 588.947 2423.38 582.48ZM2409.38 568.08H2497.28V575.08H2409.38V568.08ZM2431.88 558.98H2439.28V585.48H2431.88V558.98ZM2466.68 558.98H2474.08V585.48H2466.68V558.98ZM2547.98 580.08H2596.88V623.98H2589.68V587.38H2554.78V624.58H2547.98V580.08ZM2568.48 559.18H2575.88V651.08H2568.48V559.18ZM2551.78 611.18H2593.58V618.48H2551.78V611.18ZM2521.18 559.28L2527.98 561.18C2526.71 564.847 2525.18 568.48 2523.38 572.08C2521.58 575.614 2519.58 578.98 2517.38 582.18C2515.24 585.314 2513.01 588.08 2510.68 590.48C2510.41 589.947 2510.04 589.247 2509.58 588.38C2509.11 587.447 2508.61 586.514 2508.08 585.58C2507.61 584.647 2507.18 583.947 2506.78 583.48C2509.78 580.48 2512.54 576.847 2515.08 572.58C2517.68 568.314 2519.71 563.88 2521.18 559.28ZM2519.18 570.48H2544.68V577.38H2517.78L2519.18 570.48ZM2522.38 650.28L2521.48 643.58L2524.18 640.68L2544.48 630.58C2544.61 631.58 2544.81 632.714 2545.08 633.98C2545.34 635.247 2545.61 636.28 2545.88 637.08C2541.14 639.547 2537.31 641.547 2534.38 643.08C2531.44 644.68 2529.18 645.914 2527.58 646.78C2525.98 647.647 2524.81 648.347 2524.08 648.88C2523.34 649.414 2522.78 649.88 2522.38 650.28ZM2514.38 588.28H2542.58V595.08H2514.38V588.28ZM2509.18 608.58H2544.98V615.48H2509.18V608.58ZM2522.38 650.28C2522.11 649.747 2521.74 649.114 2521.28 648.38C2520.81 647.714 2520.31 647.014 2519.78 646.28C2519.24 645.614 2518.78 645.08 2518.38 644.68C2519.31 644.014 2520.41 642.947 2521.68 641.48C2523.01 640.014 2523.68 638.08 2523.68 635.68V590.28H2530.88V641.28C2530.88 641.28 2530.58 641.514 2529.98 641.98C2529.38 642.38 2528.64 642.914 2527.78 643.58C2526.98 644.247 2526.14 644.98 2525.28 645.78C2524.48 646.647 2523.78 647.447 2523.18 648.18C2522.64 648.98 2522.38 649.68 2522.38 650.28Z" fill="#3F3F3F"/>
<path d="M1412.08 906.625H1494.98V913.825H1412.08V906.625ZM1408.38 942.325H1498.08V949.525H1408.38V942.325ZM1468.08 910.425H1475.78V992.225H1468.08V910.425ZM1432.48 910.325H1440.08V938.025C1440.08 942.892 1439.81 947.792 1439.28 952.725C1438.74 957.658 1437.61 962.492 1435.88 967.225C1434.21 971.892 1431.68 976.392 1428.28 980.725C1424.88 984.992 1420.31 988.925 1414.58 992.525C1414.11 991.858 1413.54 991.192 1412.88 990.525C1412.21 989.858 1411.48 989.192 1410.68 988.525C1409.94 987.858 1409.24 987.325 1408.58 986.925C1413.98 983.592 1418.28 979.992 1421.48 976.125C1424.68 972.258 1427.04 968.225 1428.58 964.025C1430.18 959.825 1431.21 955.525 1431.68 951.125C1432.21 946.725 1432.48 942.358 1432.48 938.025V910.325ZM1543.88 943.625C1548.34 954.558 1555.28 963.658 1564.68 970.925C1574.14 978.125 1585.78 983.058 1599.58 985.725C1599.11 986.258 1598.54 986.892 1597.88 987.625C1597.28 988.425 1596.71 989.225 1596.18 990.025C1595.64 990.892 1595.21 991.692 1594.88 992.425C1585.48 990.292 1577.08 987.125 1569.68 982.925C1562.28 978.725 1555.91 973.492 1550.58 967.225C1545.24 960.958 1540.88 953.758 1537.48 945.625L1543.88 943.625ZM1579.58 940.825H1581.08L1582.48 940.425L1587.58 942.825C1585.38 949.825 1582.38 956.025 1578.58 961.425C1574.78 966.825 1570.38 971.525 1565.38 975.525C1560.44 979.525 1555.08 982.892 1549.28 985.625C1543.48 988.358 1537.44 990.592 1531.18 992.325C1530.78 991.392 1530.18 990.258 1529.38 988.925C1528.64 987.658 1527.91 986.658 1527.18 985.925C1533.04 984.525 1538.71 982.592 1544.18 980.125C1549.64 977.592 1554.68 974.525 1559.28 970.925C1563.94 967.258 1568.01 963.058 1571.48 958.325C1574.94 953.525 1577.64 948.125 1579.58 942.125V940.825ZM1541.68 940.825H1580.78V948.025H1539.48L1541.68 940.825ZM1548.48 899.725L1556.88 901.125C1555.54 910.592 1553.78 919.458 1551.58 927.725C1549.38 935.925 1546.51 943.492 1542.98 950.425C1539.44 957.358 1535.11 963.658 1529.98 969.325C1524.91 974.925 1518.84 979.892 1511.78 984.225C1511.44 983.692 1510.94 983.058 1510.28 982.325C1509.61 981.525 1508.91 980.792 1508.18 980.125C1507.51 979.392 1506.84 978.825 1506.18 978.425C1515.04 973.025 1522.31 966.492 1527.98 958.825C1533.71 951.092 1538.21 942.292 1541.48 932.425C1544.74 922.492 1547.08 911.592 1548.48 899.725ZM1570.48 905.125L1576.28 901.525C1577.74 902.992 1579.28 904.625 1580.88 906.425C1582.54 908.158 1584.11 909.858 1585.58 911.525C1587.04 913.192 1588.24 914.625 1589.18 915.825L1583.28 919.925C1582.34 918.658 1581.14 917.158 1579.68 915.425C1578.21 913.692 1576.68 911.925 1575.08 910.125C1573.48 908.325 1571.94 906.658 1570.48 905.125ZM1517.58 931.825C1517.44 931.225 1517.21 930.492 1516.88 929.625C1516.61 928.758 1516.31 927.892 1515.98 927.025C1515.71 926.092 1515.41 925.325 1515.08 924.725C1515.81 924.525 1516.44 924.092 1516.98 923.425C1517.58 922.758 1518.18 921.858 1518.78 920.725C1519.18 920.058 1519.78 918.825 1520.58 917.025C1521.44 915.158 1522.34 912.992 1523.28 910.525C1524.21 907.992 1524.94 905.458 1525.48 902.925L1533.48 904.425C1532.68 907.225 1531.71 910.058 1530.58 912.925C1529.51 915.725 1528.38 918.358 1527.18 920.825C1525.98 923.292 1524.81 925.458 1523.68 927.325V927.525C1523.68 927.525 1523.38 927.658 1522.78 927.925C1522.18 928.192 1521.44 928.558 1520.58 929.025C1519.78 929.425 1519.08 929.892 1518.48 930.425C1517.88 930.892 1517.58 931.358 1517.58 931.825ZM1517.58 931.825V925.925L1522.68 922.925H1596.28L1596.18 930.125H1528.28C1525.08 930.125 1522.61 930.292 1520.88 930.625C1519.21 930.892 1518.11 931.292 1517.58 931.825ZM1637.08 918.225H1695.58V925.525H1637.08V918.225ZM1651.28 902.225H1658.68V937.325C1658.68 940.525 1658.48 943.925 1658.08 947.525C1657.74 951.058 1657.04 954.592 1655.98 958.125C1654.98 961.658 1653.44 965.025 1651.38 968.225C1649.38 971.358 1646.71 974.192 1643.38 976.725C1643.11 976.192 1642.64 975.592 1641.98 974.925C1641.31 974.192 1640.61 973.492 1639.88 972.825C1639.14 972.158 1638.51 971.658 1637.98 971.325C1641.98 968.258 1644.91 964.825 1646.78 961.025C1648.64 957.225 1649.84 953.292 1650.38 949.225C1650.98 945.092 1651.28 941.092 1651.28 937.225V902.225ZM1636.48 943.425H1697.58V950.625H1636.48V943.425ZM1629.38 936.325V975.025H1621.98V943.325H1608.18V936.325H1629.38ZM1625.58 971.325C1627.24 971.325 1628.81 971.958 1630.28 973.225C1631.81 974.425 1633.94 975.925 1636.68 977.725C1639.94 979.792 1643.74 981.125 1648.08 981.725C1652.41 982.258 1657.38 982.525 1662.98 982.525C1665.98 982.525 1669.08 982.492 1672.28 982.425C1675.54 982.292 1678.78 982.158 1681.98 982.025C1685.24 981.825 1688.38 981.625 1691.38 981.425C1694.38 981.158 1697.11 980.892 1699.58 980.625C1699.24 981.292 1698.91 982.092 1698.58 983.025C1698.31 983.958 1698.04 984.892 1697.78 985.825C1697.58 986.825 1697.44 987.692 1697.38 988.425C1695.58 988.492 1693.24 988.592 1690.38 988.725C1687.51 988.858 1684.38 988.958 1680.98 989.025C1677.64 989.158 1674.38 989.258 1671.18 989.325C1667.98 989.392 1665.18 989.425 1662.78 989.425C1656.58 989.425 1651.28 989.058 1646.88 988.325C1642.48 987.592 1638.54 986.125 1635.08 983.925C1633.01 982.592 1631.18 981.292 1629.58 980.025C1627.98 978.692 1626.61 978.025 1625.48 978.025C1624.34 978.025 1623.04 978.625 1621.58 979.825C1620.18 980.958 1618.64 982.492 1616.98 984.425C1615.38 986.358 1613.71 988.458 1611.98 990.725L1606.98 983.925C1610.38 980.258 1613.68 977.258 1616.88 974.925C1620.14 972.525 1623.04 971.325 1625.58 971.325ZM1611.28 906.325L1616.68 902.225C1618.54 903.825 1620.44 905.625 1622.38 907.625C1624.38 909.558 1626.24 911.492 1627.98 913.425C1629.78 915.292 1631.24 916.958 1632.38 918.425L1626.58 923.225C1625.58 921.625 1624.21 919.858 1622.48 917.925C1620.74 915.925 1618.91 913.925 1616.98 911.925C1615.04 909.858 1613.14 907.992 1611.28 906.325ZM1675.18 902.225H1682.68V976.125H1675.18V902.225ZM1725.68 928.125H1796.88V934.325H1725.68V928.125ZM1727.08 957.325H1784.38V963.525H1727.08V957.325ZM1741.78 919.425H1748.98V944.925H1773.28V919.425H1780.68V950.925H1741.78V919.425ZM1782.38 957.325H1783.88L1785.18 957.025L1789.88 959.525C1787.14 964.725 1783.58 969.225 1779.18 973.025C1774.78 976.758 1769.78 979.892 1764.18 982.425C1758.58 984.958 1752.58 986.992 1746.18 988.525C1739.78 990.125 1733.18 991.325 1726.38 992.125C1726.18 991.258 1725.74 990.192 1725.08 988.925C1724.48 987.658 1723.84 986.625 1723.18 985.825C1729.51 985.158 1735.71 984.192 1741.78 982.925C1747.84 981.592 1753.51 979.825 1758.78 977.625C1764.11 975.425 1768.81 972.758 1772.88 969.625C1776.94 966.492 1780.11 962.758 1782.38 958.425V957.325ZM1744.88 962.525C1748.08 966.992 1752.38 970.825 1757.78 974.025C1763.24 977.225 1769.51 979.792 1776.58 981.725C1783.64 983.658 1791.21 985.025 1799.28 985.825C1798.81 986.358 1798.28 987.025 1797.68 987.825C1797.14 988.625 1796.61 989.392 1796.08 990.125C1795.61 990.925 1795.21 991.658 1794.88 992.325C1786.68 991.258 1778.98 989.558 1771.78 987.225C1764.58 984.958 1758.11 981.992 1752.38 978.325C1746.71 974.592 1742.08 970.158 1738.48 965.025L1744.88 962.525ZM1752.28 900.125H1759.98V913.825H1752.28V900.125ZM1718.98 910.025H1797.48V916.825H1718.98V910.025ZM1715.28 910.025H1722.48V938.925C1722.48 942.792 1722.34 947.025 1722.08 951.625C1721.88 956.225 1721.41 960.925 1720.68 965.725C1720.01 970.525 1719.01 975.192 1717.68 979.725C1716.41 984.258 1714.68 988.425 1712.48 992.225C1712.08 991.825 1711.48 991.325 1710.68 990.725C1709.94 990.192 1709.18 989.658 1708.38 989.125C1707.64 988.658 1706.94 988.325 1706.28 988.125C1708.34 984.525 1709.98 980.658 1711.18 976.525C1712.38 972.325 1713.28 968.025 1713.88 963.625C1714.48 959.225 1714.84 954.925 1714.98 950.725C1715.18 946.458 1715.28 942.525 1715.28 938.925V910.025Z" fill="#3F3F3F"/>
<rect x="1828.17" y="903.445" width="800" height="88.3555" rx="44.1777" fill="#A6A6A6"/>
<rect x="1828.17" y="903.445" width="689.9" height="88.3555" rx="44.1777" fill="#A8E70D"/>
<defs>
<linearGradient id="paint0_linear_341_183" x1="634.922" y1="436.216" x2="734.049" y2="782.77" gradientUnits="userSpaceOnUse">
<stop stop-color="#FFA866"/>
<stop offset="1" stop-color="#FF784D"/>
</linearGradient>
</defs>
</svg>
