<svg width="2905" height="1345" viewBox="0 0 2905 1345" fill="none" xmlns="http://www.w3.org/2000/svg">
<rect x="2.79492" y="3.10156" width="2899.47" height="1338.5" rx="172.5" fill="#E9E9E9" stroke="#B9B9B9" stroke-width="5"/>
<path d="M1687.49 328.529H1876.91V343.049H1687.49V328.529ZM1774.83 314.449H1792.43V466.909H1774.83V314.449ZM1703.33 360.209H1855.79V374.509H1720.49V417.189H1703.33V360.209ZM1847.43 360.209H1864.37V401.129C1864.37 404.942 1863.85 407.875 1862.83 409.929C1861.95 411.982 1859.97 413.595 1856.89 414.769C1854.1 415.795 1850.43 416.455 1845.89 416.749C1841.49 416.895 1836.13 416.969 1829.83 416.969C1829.39 414.915 1828.58 412.715 1827.41 410.369C1826.38 407.875 1825.35 405.749 1824.33 403.989C1828.87 404.135 1832.98 404.209 1836.65 404.209C1840.46 404.209 1843.03 404.135 1844.35 403.989C1845.52 403.989 1846.33 403.769 1846.77 403.329C1847.21 402.889 1847.43 402.155 1847.43 401.129V360.209ZM1776.59 391.449L1789.35 396.509C1782.31 406.335 1773.65 415.355 1763.39 423.569C1753.12 431.782 1741.9 438.969 1729.73 445.129C1717.55 451.289 1705.16 456.202 1692.55 459.869C1691.81 458.402 1690.86 456.789 1689.69 455.029C1688.51 453.415 1687.19 451.802 1685.73 450.189C1684.41 448.575 1683.16 447.182 1681.99 446.009C1694.45 443.075 1706.7 438.895 1718.73 433.469C1730.9 428.042 1741.97 421.809 1751.95 414.769C1762.07 407.582 1770.28 399.809 1776.59 391.449ZM1788.47 390.789C1793.89 397.682 1801.37 404.649 1810.91 411.689C1820.59 418.729 1831.81 425.182 1844.57 431.049C1857.33 436.769 1870.97 441.242 1885.49 444.469C1884.31 445.495 1883.07 446.889 1881.75 448.649C1880.43 450.409 1879.18 452.169 1878.01 453.929C1876.83 455.835 1875.81 457.449 1874.93 458.769C1860.55 454.955 1847.13 449.822 1834.67 443.369C1822.35 436.769 1811.49 429.655 1802.11 422.029C1792.72 414.402 1785.17 407.069 1779.45 400.029L1788.47 390.789ZM1709.93 283.869H1779.23V297.949H1709.93V283.869ZM1794.19 283.869H1879.77V297.949H1794.19V283.869ZM1714.55 263.629L1730.17 267.809C1725.77 278.515 1720.27 288.782 1713.67 298.609C1707.21 308.435 1700.54 316.795 1693.65 323.689C1692.62 322.809 1691.23 321.782 1689.47 320.609C1687.85 319.435 1686.17 318.335 1684.41 317.309C1682.65 316.135 1681.11 315.182 1679.79 314.449C1686.97 308.289 1693.57 300.735 1699.59 291.789C1705.75 282.695 1710.73 273.309 1714.55 263.629ZM1799.69 263.629L1815.97 267.589C1811.86 278.735 1806.43 289.222 1799.69 299.049C1792.94 308.729 1785.83 316.942 1778.35 323.689C1777.32 322.809 1775.93 321.782 1774.17 320.609C1772.55 319.289 1770.87 318.042 1769.11 316.869C1767.35 315.695 1765.73 314.742 1764.27 314.009C1771.89 307.849 1778.79 300.442 1784.95 291.789C1791.25 282.989 1796.17 273.602 1799.69 263.629ZM1722.91 294.649L1736.99 290.029C1739.63 294.429 1742.34 299.342 1745.13 304.769C1747.91 310.049 1749.89 314.595 1751.07 318.409L1736.55 323.909C1735.37 319.949 1733.47 315.255 1730.83 309.829C1728.33 304.255 1725.69 299.195 1722.91 294.649ZM1813.99 293.769L1828.07 289.369C1831.29 293.769 1834.52 298.682 1837.75 304.109C1840.97 309.535 1843.32 314.229 1844.79 318.189L1830.05 323.469C1828.73 319.362 1826.53 314.522 1823.45 308.949C1820.37 303.375 1817.21 298.315 1813.99 293.769ZM2034.65 288.709H2050.71V409.489H2034.65V288.709ZM2077.33 266.709H2093.39V445.349C2093.39 450.629 2092.65 454.589 2091.19 457.229C2089.72 460.015 2087.37 462.142 2084.15 463.609C2080.77 464.929 2076.08 465.735 2070.07 466.029C2064.2 466.469 2056.5 466.689 2046.97 466.689C2046.67 464.489 2045.94 461.775 2044.77 458.549C2043.74 455.469 2042.64 452.755 2041.47 450.409C2048.36 450.555 2054.67 450.629 2060.39 450.629C2066.25 450.629 2070.07 450.629 2071.83 450.629C2073.88 450.482 2075.27 450.042 2076.01 449.309C2076.89 448.722 2077.33 447.475 2077.33 445.569V266.709ZM1900.45 329.849L2021.89 315.989L2023.43 331.609L1901.99 345.469L1900.45 329.849ZM1931.91 264.729H1948.85C1948.85 284.675 1949.8 303.815 1951.71 322.149C1953.61 340.482 1956.25 357.422 1959.63 372.969C1963.15 388.369 1967.03 401.862 1971.29 413.449C1975.69 424.889 1980.23 433.835 1984.93 440.289C1989.77 446.595 1994.46 449.749 1999.01 449.749C2001.79 449.749 2003.92 447.035 2005.39 441.609C2006.85 436.035 2007.88 426.795 2008.47 413.889C2010.23 415.649 2012.43 417.335 2015.07 418.949C2017.71 420.562 2020.13 421.809 2022.33 422.689C2021.3 433.835 2019.83 442.562 2017.93 448.869C2016.17 455.175 2013.67 459.575 2010.45 462.069C2007.37 464.709 2003.26 466.029 1998.13 466.029C1991.53 466.029 1985.37 463.462 1979.65 458.329C1973.93 453.342 1968.65 446.229 1963.81 436.989C1959.11 427.602 1954.79 416.675 1950.83 404.209C1947.01 391.595 1943.71 377.809 1940.93 362.849C1938.29 347.889 1936.23 332.122 1934.77 315.549C1933.3 298.975 1932.35 282.035 1931.91 264.729ZM1994.17 344.369L2010.01 348.989C2003.11 365.709 1994.68 381.109 1984.71 395.189C1974.88 409.122 1963.88 421.735 1951.71 433.029C1939.53 444.322 1926.48 454.075 1912.55 462.289C1911.81 461.115 1910.71 459.722 1909.25 458.109C1907.93 456.495 1906.46 454.809 1904.85 453.049C1903.38 451.435 1902.06 450.115 1900.89 449.089C1914.67 441.755 1927.43 432.882 1939.17 422.469C1951.05 412.055 1961.61 400.322 1970.85 387.269C1980.23 374.069 1988.01 359.769 1994.17 344.369ZM1960.51 278.149L1971.51 269.349C1975.47 272.135 1979.5 275.362 1983.61 279.029C1987.71 282.549 1991.53 286.142 1995.05 289.809C1998.71 293.329 2001.57 296.555 2003.63 299.489L1991.97 309.609C1989.91 306.675 1987.13 303.375 1983.61 299.709C1980.23 295.895 1976.49 292.155 1972.39 288.489C1968.28 284.675 1964.32 281.229 1960.51 278.149ZM2133.65 303.889H2310.97V407.289H2294.03V319.949H2150.15V408.389H2133.65V303.889ZM2142.45 378.469H2303.93V394.749H2142.45V378.469ZM2213.29 264.509H2230.67V466.689H2213.29V264.509Z" fill="#3F3F3F"/>
<path d="M1437.55 906.625H1520.45V913.825H1437.55V906.625ZM1433.85 942.325H1523.55V949.525H1433.85V942.325ZM1493.55 910.425H1501.25V992.225H1493.55V910.425ZM1457.95 910.325H1465.55V938.025C1465.55 942.892 1465.28 947.792 1464.75 952.725C1464.21 957.658 1463.08 962.492 1461.35 967.225C1459.68 971.892 1457.15 976.392 1453.75 980.725C1450.35 984.992 1445.78 988.925 1440.05 992.525C1439.58 991.858 1439.01 991.192 1438.35 990.525C1437.68 989.858 1436.95 989.192 1436.15 988.525C1435.41 987.858 1434.71 987.325 1434.05 986.925C1439.45 983.592 1443.75 979.992 1446.95 976.125C1450.15 972.258 1452.51 968.225 1454.05 964.025C1455.65 959.825 1456.68 955.525 1457.15 951.125C1457.68 946.725 1457.95 942.358 1457.95 938.025V910.325ZM1569.35 943.625C1573.81 954.558 1580.75 963.658 1590.15 970.925C1599.61 978.125 1611.25 983.058 1625.05 985.725C1624.58 986.258 1624.01 986.892 1623.35 987.625C1622.75 988.425 1622.18 989.225 1621.65 990.025C1621.11 990.892 1620.68 991.692 1620.35 992.425C1610.95 990.292 1602.55 987.125 1595.15 982.925C1587.75 978.725 1581.38 973.492 1576.05 967.225C1570.71 960.958 1566.35 953.758 1562.95 945.625L1569.35 943.625ZM1605.05 940.825H1606.55L1607.95 940.425L1613.05 942.825C1610.85 949.825 1607.85 956.025 1604.05 961.425C1600.25 966.825 1595.85 971.525 1590.85 975.525C1585.91 979.525 1580.55 982.892 1574.75 985.625C1568.95 988.358 1562.91 990.592 1556.65 992.325C1556.25 991.392 1555.65 990.258 1554.85 988.925C1554.11 987.658 1553.38 986.658 1552.65 985.925C1558.51 984.525 1564.18 982.592 1569.65 980.125C1575.11 977.592 1580.15 974.525 1584.75 970.925C1589.41 967.258 1593.48 963.058 1596.95 958.325C1600.41 953.525 1603.11 948.125 1605.05 942.125V940.825ZM1567.15 940.825H1606.25V948.025H1564.95L1567.15 940.825ZM1573.95 899.725L1582.35 901.125C1581.01 910.592 1579.25 919.458 1577.05 927.725C1574.85 935.925 1571.98 943.492 1568.45 950.425C1564.91 957.358 1560.58 963.658 1555.45 969.325C1550.38 974.925 1544.31 979.892 1537.25 984.225C1536.91 983.692 1536.41 983.058 1535.75 982.325C1535.08 981.525 1534.38 980.792 1533.65 980.125C1532.98 979.392 1532.31 978.825 1531.65 978.425C1540.51 973.025 1547.78 966.492 1553.45 958.825C1559.18 951.092 1563.68 942.292 1566.95 932.425C1570.21 922.492 1572.55 911.592 1573.95 899.725ZM1595.95 905.125L1601.75 901.525C1603.21 902.992 1604.75 904.625 1606.35 906.425C1608.01 908.158 1609.58 909.858 1611.05 911.525C1612.51 913.192 1613.71 914.625 1614.65 915.825L1608.75 919.925C1607.81 918.658 1606.61 917.158 1605.15 915.425C1603.68 913.692 1602.15 911.925 1600.55 910.125C1598.95 908.325 1597.41 906.658 1595.95 905.125ZM1543.05 931.825C1542.91 931.225 1542.68 930.492 1542.35 929.625C1542.08 928.758 1541.78 927.892 1541.45 927.025C1541.18 926.092 1540.88 925.325 1540.55 924.725C1541.28 924.525 1541.91 924.092 1542.45 923.425C1543.05 922.758 1543.65 921.858 1544.25 920.725C1544.65 920.058 1545.25 918.825 1546.05 917.025C1546.91 915.158 1547.81 912.992 1548.75 910.525C1549.68 907.992 1550.41 905.458 1550.95 902.925L1558.95 904.425C1558.15 907.225 1557.18 910.058 1556.05 912.925C1554.98 915.725 1553.85 918.358 1552.65 920.825C1551.45 923.292 1550.28 925.458 1549.15 927.325V927.525C1549.15 927.525 1548.85 927.658 1548.25 927.925C1547.65 928.192 1546.91 928.558 1546.05 929.025C1545.25 929.425 1544.55 929.892 1543.95 930.425C1543.35 930.892 1543.05 931.358 1543.05 931.825ZM1543.05 931.825V925.925L1548.15 922.925H1621.75L1621.65 930.125H1553.75C1550.55 930.125 1548.08 930.292 1546.35 930.625C1544.68 930.892 1543.58 931.292 1543.05 931.825ZM1662.55 918.225H1721.05V925.525H1662.55V918.225ZM1676.75 902.225H1684.15V937.325C1684.15 940.525 1683.95 943.925 1683.55 947.525C1683.21 951.058 1682.51 954.592 1681.45 958.125C1680.45 961.658 1678.91 965.025 1676.85 968.225C1674.85 971.358 1672.18 974.192 1668.85 976.725C1668.58 976.192 1668.11 975.592 1667.45 974.925C1666.78 974.192 1666.08 973.492 1665.35 972.825C1664.61 972.158 1663.98 971.658 1663.45 971.325C1667.45 968.258 1670.38 964.825 1672.25 961.025C1674.11 957.225 1675.31 953.292 1675.85 949.225C1676.45 945.092 1676.75 941.092 1676.75 937.225V902.225ZM1661.95 943.425H1723.05V950.625H1661.95V943.425ZM1654.85 936.325V975.025H1647.45V943.325H1633.65V936.325H1654.85ZM1651.05 971.325C1652.71 971.325 1654.28 971.958 1655.75 973.225C1657.28 974.425 1659.41 975.925 1662.15 977.725C1665.41 979.792 1669.21 981.125 1673.55 981.725C1677.88 982.258 1682.85 982.525 1688.45 982.525C1691.45 982.525 1694.55 982.492 1697.75 982.425C1701.01 982.292 1704.25 982.158 1707.45 982.025C1710.71 981.825 1713.85 981.625 1716.85 981.425C1719.85 981.158 1722.58 980.892 1725.05 980.625C1724.71 981.292 1724.38 982.092 1724.05 983.025C1723.78 983.958 1723.51 984.892 1723.25 985.825C1723.05 986.825 1722.91 987.692 1722.85 988.425C1721.05 988.492 1718.71 988.592 1715.85 988.725C1712.98 988.858 1709.85 988.958 1706.45 989.025C1703.11 989.158 1699.85 989.258 1696.65 989.325C1693.45 989.392 1690.65 989.425 1688.25 989.425C1682.05 989.425 1676.75 989.058 1672.35 988.325C1667.95 987.592 1664.01 986.125 1660.55 983.925C1658.48 982.592 1656.65 981.292 1655.05 980.025C1653.45 978.692 1652.08 978.025 1650.95 978.025C1649.81 978.025 1648.51 978.625 1647.05 979.825C1645.65 980.958 1644.11 982.492 1642.45 984.425C1640.85 986.358 1639.18 988.458 1637.45 990.725L1632.45 983.925C1635.85 980.258 1639.15 977.258 1642.35 974.925C1645.61 972.525 1648.51 971.325 1651.05 971.325ZM1636.75 906.325L1642.15 902.225C1644.01 903.825 1645.91 905.625 1647.85 907.625C1649.85 909.558 1651.71 911.492 1653.45 913.425C1655.25 915.292 1656.71 916.958 1657.85 918.425L1652.05 923.225C1651.05 921.625 1649.68 919.858 1647.95 917.925C1646.21 915.925 1644.38 913.925 1642.45 911.925C1640.51 909.858 1638.61 907.992 1636.75 906.325ZM1700.65 902.225H1708.15V976.125H1700.65V902.225ZM1751.15 928.125H1822.35V934.325H1751.15V928.125ZM1752.55 957.325H1809.85V963.525H1752.55V957.325ZM1767.25 919.425H1774.45V944.925H1798.75V919.425H1806.15V950.925H1767.25V919.425ZM1807.85 957.325H1809.35L1810.65 957.025L1815.35 959.525C1812.61 964.725 1809.05 969.225 1804.65 973.025C1800.25 976.758 1795.25 979.892 1789.65 982.425C1784.05 984.958 1778.05 986.992 1771.65 988.525C1765.25 990.125 1758.65 991.325 1751.85 992.125C1751.65 991.258 1751.21 990.192 1750.55 988.925C1749.95 987.658 1749.31 986.625 1748.65 985.825C1754.98 985.158 1761.18 984.192 1767.25 982.925C1773.31 981.592 1778.98 979.825 1784.25 977.625C1789.58 975.425 1794.28 972.758 1798.35 969.625C1802.41 966.492 1805.58 962.758 1807.85 958.425V957.325ZM1770.35 962.525C1773.55 966.992 1777.85 970.825 1783.25 974.025C1788.71 977.225 1794.98 979.792 1802.05 981.725C1809.11 983.658 1816.68 985.025 1824.75 985.825C1824.28 986.358 1823.75 987.025 1823.15 987.825C1822.61 988.625 1822.08 989.392 1821.55 990.125C1821.08 990.925 1820.68 991.658 1820.35 992.325C1812.15 991.258 1804.45 989.558 1797.25 987.225C1790.05 984.958 1783.58 981.992 1777.85 978.325C1772.18 974.592 1767.55 970.158 1763.95 965.025L1770.35 962.525ZM1777.75 900.125H1785.45V913.825H1777.75V900.125ZM1744.45 910.025H1822.95V916.825H1744.45V910.025ZM1740.75 910.025H1747.95V938.925C1747.95 942.792 1747.81 947.025 1747.55 951.625C1747.35 956.225 1746.88 960.925 1746.15 965.725C1745.48 970.525 1744.48 975.192 1743.15 979.725C1741.88 984.258 1740.15 988.425 1737.95 992.225C1737.55 991.825 1736.95 991.325 1736.15 990.725C1735.41 990.192 1734.65 989.658 1733.85 989.125C1733.11 988.658 1732.41 988.325 1731.75 988.125C1733.81 984.525 1735.45 980.658 1736.65 976.525C1737.85 972.325 1738.75 968.025 1739.35 963.625C1739.95 959.225 1740.31 954.925 1740.45 950.725C1740.65 946.458 1740.75 942.525 1740.75 938.925V910.025Z" fill="#3F3F3F"/>
<rect x="1853.64" y="903.445" width="800" height="88.3555" rx="44.1777" fill="#A6A6A6"/>
<rect x="1853.64" y="903.445" width="50.9219" height="88.3555" rx="25.4609" fill="white"/>
<path d="M565.102 491.09L904.551 830.539" stroke="black"/>
<rect x="298.461" y="235.07" width="863.824" height="863.824" rx="159" fill="white"/>
<circle cx="730.373" cy="666.984" r="390.953" fill="#F6F6F6"/>
<circle cx="730.373" cy="666.984" r="302.477" stroke="#D7D7D7" stroke-width="5"/>
<circle cx="730.372" cy="666.985" r="238.606" stroke="#D7D7D7" stroke-width="5"/>
<path d="M735.187 443.883C744.938 440.999 766.398 435.246 793.142 438.859C822.484 442.822 854.666 464.192 868.408 475.281C877.955 477.201 899.137 487.667 914.047 516.078C917.391 515.312 928.575 516.432 941.63 527.92C952.075 537.111 974.995 559.486 985.149 569.524L912.203 643.511C902.141 633.871 880.077 612.374 872.317 603.505C862.617 592.42 857.566 581.976 857.716 573.237C857.114 573.237 854.373 570.748 853.077 569.502L740.22 682.324C740.357 691.163 736.997 700.036 730.166 706.692L568.612 864.087C555.443 876.917 534.366 876.642 521.536 863.473L511.557 853.23C498.727 840.061 499.002 818.984 512.17 806.154L673.726 648.759C681.371 641.311 691.68 638.281 701.494 639.624L815.12 527.078C812.846 519.717 805.985 503.71 793.142 487.932C775.905 466.755 749.309 463.551 733.742 461.767C722.065 458.475 725.436 446.767 735.187 443.883Z" fill="#C0C0C0"/>
</svg>
