<svg width="842" height="842" viewBox="0 0 842 842" fill="none" xmlns="http://www.w3.org/2000/svg">
<g clip-path="url(#clip0_342_199)">
<path d="M533.664 695.019H413.507C111.976 695.019 25.433 644.586 14.3775 524.729C2.2189 392.913 86.0963 312.457 135.232 276.576C133.976 260.88 137.744 198.723 157.835 184.282C173.908 172.73 220.349 200.387 241.56 215.659C334.112 165.259 468.433 177.829 524.024 190.414C533.659 175.247 558.39 145.342 580.23 147.055C602.07 148.768 623.387 191.153 631.316 212.132C683.511 229.182 810.817 301.477 827.57 465.802C844.316 630.043 689.08 695.019 533.664 695.019Z" fill="black" stroke="white" stroke-width="6"/>
<ellipse cx="282.011" cy="424.978" rx="115.929" ry="151.318" fill="white"/>
<ellipse cx="533.392" cy="403.01" rx="115.929" ry="151.318" fill="white"/>
<ellipse cx="277.764" cy="523.168" rx="7.52918" ry="21.2189" fill="black"/>
<path d="M552.433 513.5C552.433 525.219 549.062 534.719 544.904 534.719C540.746 534.719 537.375 525.219 537.375 513.5C537.375 501.781 540.746 492.281 544.904 492.281C549.062 492.281 552.433 501.781 552.433 513.5Z" fill="black"/>
<path d="M17.8334 769.88C-11.4442 714.83 41.6742 663.414 78.2759 659.482C119.33 655.072 159.04 694.166 137.532 723.003C121.154 744.96 133.355 748.424 132.02 778.818C130.677 809.36 51.0233 832.287 17.8334 769.88Z" fill="black"/>
<path d="M822.346 768.112C851.698 711.159 795.633 661.039 757.586 658.448C714.911 655.544 674.439 696.711 697.29 725.137C714.689 746.782 702.095 750.761 704.046 781.537C706.006 812.463 789.072 832.675 822.346 768.112Z" fill="black"/>
<path d="M144.187 776.48V729.208H160.714C164.007 729.208 166.723 729.777 168.862 730.916C171.001 732.039 172.594 733.555 173.64 735.463C174.687 737.356 175.21 739.456 175.21 741.765C175.21 743.796 174.848 745.473 174.125 746.797C173.417 748.12 172.479 749.166 171.309 749.936C170.155 750.705 168.901 751.275 167.547 751.644V752.105C168.993 752.198 170.447 752.706 171.909 753.629C173.371 754.552 174.595 755.876 175.579 757.599C176.564 759.323 177.057 761.431 177.057 763.924C177.057 766.293 176.518 768.425 175.441 770.317C174.364 772.21 172.663 773.711 170.34 774.819C168.016 775.926 164.992 776.48 161.268 776.48H144.187ZM149.912 771.402H161.268C165.008 771.402 167.662 770.679 169.232 769.233C170.817 767.771 171.609 766.001 171.609 763.924C171.609 762.323 171.201 760.846 170.386 759.492C169.57 758.122 168.408 757.03 166.9 756.214C165.392 755.383 163.607 754.968 161.545 754.968H149.912V771.402ZM149.912 749.982H160.53C162.253 749.982 163.807 749.643 165.192 748.966C166.593 748.289 167.701 747.335 168.516 746.104C169.347 744.873 169.763 743.426 169.763 741.765C169.763 739.687 169.039 737.925 167.593 736.479C166.146 735.017 163.854 734.286 160.714 734.286H149.912V749.982ZM186.463 776.48V729.208H214.993V734.286H192.187V750.259H213.515V755.337H192.187V771.402H215.362V776.48H186.463ZM225.31 729.208H232.143L248.208 768.448H248.762L264.827 729.208H271.66V776.48H266.305V740.564H265.843L251.07 776.48H245.9L231.127 740.564H230.665V776.48H225.31V729.208ZM283.138 776.48V729.208H288.862V750.259H314.068V729.208H319.792V776.48H314.068V755.337H288.862V776.48H283.138ZM371.139 752.844C371.139 757.83 370.239 762.139 368.438 765.77C366.638 769.402 364.168 772.203 361.029 774.172C357.89 776.142 354.304 777.127 350.273 777.127C346.241 777.127 342.655 776.142 339.516 774.172C336.377 772.203 333.907 769.402 332.107 765.77C330.306 762.139 329.406 757.83 329.406 752.844C329.406 747.858 330.306 743.55 332.107 739.918C333.907 736.286 336.377 733.486 339.516 731.516C342.655 729.546 346.241 728.561 350.273 728.561C354.304 728.561 357.89 729.546 361.029 731.516C364.168 733.486 366.638 736.286 368.438 739.918C370.239 743.55 371.139 747.858 371.139 752.844ZM365.599 752.844C365.599 748.751 364.915 745.296 363.545 742.48C362.191 739.664 360.352 737.533 358.028 736.086C355.72 734.64 353.135 733.917 350.273 733.917C347.41 733.917 344.818 734.64 342.494 736.086C340.186 737.533 338.347 739.664 336.977 742.48C335.623 745.296 334.946 748.751 334.946 752.844C334.946 756.937 335.623 760.392 336.977 763.208C338.347 766.024 340.186 768.155 342.494 769.602C344.818 771.048 347.41 771.772 350.273 771.772C353.135 771.772 355.72 771.048 358.028 769.602C360.352 768.155 362.191 766.024 363.545 763.208C364.915 760.392 365.599 756.937 365.599 752.844ZM380.764 729.208H387.597L403.662 768.448H404.216L420.282 729.208H427.114V776.48H421.759V740.564H421.297L406.524 776.48H401.354L386.581 740.564H386.12V776.48H380.764V729.208ZM482.725 741.026C482.448 738.687 481.325 736.871 479.355 735.578C477.385 734.286 474.969 733.64 472.107 733.64C470.014 733.64 468.183 733.978 466.614 734.655C465.059 735.332 463.844 736.263 462.967 737.448C462.105 738.633 461.674 739.98 461.674 741.488C461.674 742.749 461.974 743.834 462.574 744.742C463.19 745.635 463.975 746.381 464.929 746.981C465.883 747.566 466.883 748.051 467.929 748.435C468.976 748.805 469.938 749.105 470.815 749.336L475.616 750.628C476.847 750.951 478.216 751.398 479.724 751.967C481.248 752.536 482.702 753.313 484.087 754.298C485.487 755.268 486.641 756.514 487.549 758.038C488.457 759.561 488.911 761.431 488.911 763.647C488.911 766.201 488.242 768.509 486.903 770.571C485.58 772.633 483.641 774.272 481.086 775.488C478.547 776.704 475.462 777.311 471.83 777.311C468.445 777.311 465.513 776.765 463.036 775.673C460.574 774.58 458.635 773.057 457.219 771.102C455.819 769.148 455.026 766.878 454.842 764.293H460.751C460.905 766.078 461.505 767.555 462.551 768.725C463.613 769.879 464.952 770.741 466.567 771.31C468.199 771.864 469.953 772.141 471.83 772.141C474.015 772.141 475.977 771.787 477.716 771.079C479.455 770.356 480.832 769.356 481.848 768.078C482.864 766.786 483.371 765.278 483.371 763.554C483.371 761.985 482.933 760.708 482.056 759.723C481.179 758.738 480.025 757.938 478.593 757.322C477.162 756.707 475.616 756.168 473.954 755.706L468.137 754.044C464.444 752.983 461.52 751.467 459.366 749.497C457.211 747.527 456.134 744.95 456.134 741.765C456.134 739.118 456.85 736.81 458.281 734.84C459.727 732.855 461.666 731.316 464.098 730.223C466.544 729.115 469.276 728.561 472.292 728.561C475.339 728.561 478.047 729.108 480.417 730.2C482.787 731.277 484.664 732.755 486.049 734.632C487.449 736.509 488.188 738.641 488.265 741.026H482.725ZM495.738 734.286V729.208H531.192V734.286H516.327V776.48H510.603V734.286H495.738ZM571.05 729.208H576.774V760.507C576.774 763.739 576.013 766.624 574.489 769.163C572.981 771.687 570.85 773.68 568.095 775.142C565.341 776.588 562.109 777.311 558.401 777.311C554.692 777.311 551.461 776.588 548.706 775.142C545.952 773.68 543.813 771.687 542.289 769.163C540.781 766.624 540.027 763.739 540.027 760.507V729.208H545.752V760.046C545.752 762.354 546.259 764.408 547.275 766.209C548.291 767.994 549.737 769.402 551.615 770.433C553.507 771.449 555.769 771.956 558.401 771.956C561.032 771.956 563.294 771.449 565.187 770.433C567.08 769.402 568.526 767.994 569.526 766.209C570.542 764.408 571.05 762.354 571.05 760.046V729.208ZM602.794 776.48H588.206V729.208H603.44C608.026 729.208 611.95 730.154 615.212 732.047C618.475 733.924 620.975 736.625 622.714 740.149C624.453 743.657 625.322 747.858 625.322 752.752C625.322 757.676 624.445 761.915 622.691 765.47C620.937 769.009 618.382 771.733 615.028 773.641C611.673 775.534 607.595 776.48 602.794 776.48ZM593.93 771.402H602.425C606.333 771.402 609.572 770.648 612.142 769.14C614.712 767.632 616.628 765.486 617.89 762.7C619.152 759.915 619.783 756.599 619.783 752.752C619.783 748.935 619.159 745.65 617.913 742.896C616.666 740.126 614.804 738.002 612.327 736.525C609.849 735.032 606.764 734.286 603.071 734.286H593.93V771.402ZM640.649 729.208V776.48H634.925V729.208H640.649ZM692.013 752.844C692.013 757.83 691.113 762.139 689.312 765.77C687.512 769.402 685.042 772.203 681.903 774.172C678.764 776.142 675.178 777.127 671.147 777.127C667.115 777.127 663.529 776.142 660.39 774.172C657.251 772.203 654.781 769.402 652.981 765.77C651.18 762.139 650.28 757.83 650.28 752.844C650.28 747.858 651.18 743.55 652.981 739.918C654.781 736.286 657.251 733.486 660.39 731.516C663.529 729.546 667.115 728.561 671.147 728.561C675.178 728.561 678.764 729.546 681.903 731.516C685.042 733.486 687.512 736.286 689.312 739.918C691.113 743.55 692.013 747.858 692.013 752.844ZM686.473 752.844C686.473 748.751 685.789 745.296 684.419 742.48C683.065 739.664 681.226 737.533 678.902 736.086C676.594 734.64 674.009 733.917 671.147 733.917C668.284 733.917 665.692 734.64 663.368 736.086C661.06 737.533 659.221 739.664 657.851 742.48C656.497 745.296 655.82 748.751 655.82 752.844C655.82 756.937 656.497 760.392 657.851 763.208C659.221 766.024 661.06 768.155 663.368 769.602C665.692 771.048 668.284 771.772 671.147 771.772C674.009 771.772 676.594 771.048 678.902 769.602C681.226 768.155 683.065 766.024 684.419 763.208C685.789 760.392 686.473 756.937 686.473 752.844Z" fill="black"/>
</g>
<defs>
<clipPath id="clip0_342_199">
<rect width="842" height="842" fill="white"/>
</clipPath>
</defs>
</svg>
