<svg width="842" height="842" viewBox="0 0 842 842" fill="none" xmlns="http://www.w3.org/2000/svg">
<g clip-path="url(#clip0_342_199)">
<path d="M533.664 695.019H413.507C111.976 695.019 25.433 644.586 14.3775 524.729C2.2189 392.913 86.0963 312.457 135.232 276.576C133.976 260.88 137.744 198.723 157.835 184.282C173.908 172.73 220.349 200.387 241.56 215.659C334.112 165.259 468.433 177.829 524.024 190.414C533.659 175.247 558.39 145.342 580.23 147.055C602.07 148.768 623.387 191.153 631.316 212.132C683.511 229.182 810.817 301.477 827.57 465.802C844.316 630.043 689.08 695.019 533.664 695.019Z" fill="black" stroke="white" stroke-width="6"/>
<ellipse cx="282.011" cy="424.978" rx="115.929" ry="151.318" fill="white"/>
<ellipse cx="533.392" cy="403.01" rx="115.929" ry="151.318" fill="white"/>
<ellipse cx="337.457" cy="421" rx="7.52918" ry="21.2189" fill="black"/>
<path d="M612.127 411.332C612.127 423.051 608.756 432.551 604.598 432.551C600.439 432.551 597.068 423.051 597.068 411.332C597.068 399.613 600.439 390.113 604.598 390.113C608.756 390.113 612.127 399.613 612.127 411.332Z" fill="black"/>
</g>
<defs>
<clipPath id="clip0_342_199">
<rect width="842" height="842" fill="white"/>
</clipPath>
</defs>
</svg>
